<svg width="365.000000" height="74.000000" viewBox="0 0 365 74" fill="none" xmlns="http://www.w3.org/2000/svg" xmlns:xlink="http://www.w3.org/1999/xlink">
	<desc>
			Created with Pixso.
	</desc>
	<defs>
		<filter id="filter_1_8_dd" x="0.000000" y="0.000000" width="171.000000" height="74.000000" filterUnits="userSpaceOnUse" color-interpolation-filters="sRGB">
			<feFlood flood-opacity="0" result="BackgroundImageFix"/>
			<feColorMatrix in="SourceAlpha" type="matrix" values="0 0 0 0 0 0 0 0 0 0 0 0 0 0 0 0 0 0 127 0" result="hardAlpha"/>
			<feOffset dx="6" dy="6"/>
			<feGaussianBlur stdDeviation="0"/>
			<feComposite in2="hardAlpha" operator="out" k2="-1" k3="1"/>
			<feColorMatrix type="matrix" values="0 0 0 0 0.99608 0 0 0 0 0.41569 0 0 0 0 0.22745 0 0 0 1 0"/>
			<feBlend mode="normal" in2="BackgroundImageFix" result="effect_dropShadow_1"/>
			<feBlend mode="normal" in="SourceGraphic" in2="effect_dropShadow_1" result="shape"/>
		</filter>
	</defs>
	<g filter="url(#filter_1_8_dd)">
		<rect id="Frame 29" width="165.000000" height="68.000000" fill="#232229" fill-opacity="1.000000"/>
		<path id="VIEW ALL" d="M38.3789 26.4541L35.4883 26.4541L40.6104 41L43.8623 41L48.9893 26.4541L46.0938 26.4541L42.3145 37.9043L42.168 37.9043L38.3789 26.4541ZM53.5418 26.4541L50.91 26.4541L50.91 41L53.5418 41L53.5418 26.4541ZM56.4071 41L65.9237 41L65.9237 38.793L59.039 38.793L59.039 34.8232L65.3769 34.8232L65.3769 32.6113L59.039 32.6113L59.039 28.6611L65.8651 28.6611L65.8651 26.4541L56.4071 26.4541L56.4071 41ZM71.6207 41L74.2183 41L77.1382 30.7949L77.2505 30.7949L80.1656 41L82.7632 41L86.8697 26.4541L84.0328 26.4541L81.4156 37.1523L81.2837 37.1523L78.481 26.4541L75.9029 26.4541L73.105 37.1426L72.9683 37.1426L70.3462 26.4541L67.5142 26.4541L71.6207 41ZM95.5238 41L96.725 37.4111L102.194 37.4111L103.4 41L106.212 41L101.085 26.4541L97.8334 26.4541L92.7113 41L95.5238 41ZM97.4379 35.2969L99.4056 29.4375L99.5179 29.4375L101.486 35.2969L97.4379 35.2969ZM108.133 41L117.171 41L117.171 38.793L110.765 38.793L110.765 26.4541L108.133 26.4541L108.133 41ZM119.454 41L128.492 41L128.492 38.793L122.086 38.793L122.086 26.4541L119.454 26.4541L119.454 41Z" fill="#FFFBF7" fill-opacity="1.000000" fill-rule="evenodd"/>
	</g>
	<rect id="Frame 30" width="164.000000" height="67.000000" transform="translate(200.500000 0.500000)" fill="#FFFBF7" fill-opacity="1.000000"/>
	<path id="Watch now" d="M232.997 41L235.595 41L238.515 30.7949L238.627 30.7949L241.542 41L244.14 41L248.246 26.4541L245.409 26.4541L242.792 37.1523L242.66 37.1523L239.857 26.4541L237.279 26.4541L234.481 37.1426L234.345 37.1426L231.723 26.4541L228.891 26.4541L232.997 41ZM251.971 41.2197C253.685 41.2197 254.705 40.4189 255.174 39.501L255.262 39.501L255.262 41L257.733 41L257.733 33.7002C257.733 30.8145 255.384 29.9502 253.299 29.9502C251.009 29.9502 249.246 30.9707 248.68 32.958L251.077 33.2998C251.336 32.5576 252.059 31.918 253.314 31.918C254.51 31.918 255.164 32.5283 255.164 33.5977L255.164 33.6416C255.164 34.3789 254.388 34.418 252.464 34.623C250.345 34.8477 248.323 35.4824 248.323 37.9385C248.323 40.082 249.891 41.2197 251.971 41.2197ZM252.64 39.3301C251.57 39.3301 250.799 38.8418 250.799 37.8945C250.799 36.9082 251.658 36.498 252.811 36.332C253.484 36.2393 254.837 36.0732 255.169 35.7998L255.169 37.0889C255.169 38.2998 254.188 39.3301 252.64 39.3301ZM265.772 30.0918L263.619 30.0918L263.619 27.4795L261.05 27.4795L261.05 30.0918L259.502 30.0918L259.502 32.0791L261.05 32.0791L261.05 38.1436C261.036 40.1992 262.525 41.2051 264.458 41.1514C265.191 41.127 265.694 40.9854 265.972 40.8926L265.537 38.8857C265.396 38.9199 265.103 38.9834 264.786 38.9834C264.141 38.9834 263.619 38.7539 263.619 37.7188L263.619 32.0791L265.772 32.0791L265.772 30.0918ZM272.569 41.2148C275.313 41.2148 277.056 39.5889 277.242 37.2695L274.786 37.2695C274.566 38.4414 273.721 39.1201 272.589 39.1201C270.987 39.1201 269.947 37.7773 269.947 35.5459C269.947 33.3438 271.007 32.0205 272.589 32.0205C273.829 32.0205 274.586 32.8164 274.786 33.8711L277.242 33.8711C277.066 31.5029 275.221 29.9502 272.555 29.9502C269.361 29.9502 267.345 32.2549 267.345 35.5898C267.345 38.8906 269.307 41.2148 272.569 41.2148ZM281.93 34.6084C281.93 33.0312 282.911 32.123 284.288 32.123C285.636 32.123 286.432 32.9824 286.432 34.4521L286.432 41L289.005 41L289.005 34.0518C289.005 31.4199 287.511 29.9502 285.245 29.9502C283.571 29.9502 282.506 30.707 282.003 31.9424L281.871 31.9424L281.871 26.4541L279.362 26.4541L279.362 41L281.93 41L281.93 34.6084ZM299.153 34.6084C299.153 33.0312 300.105 32.123 301.463 32.123C302.791 32.123 303.587 32.9971 303.587 34.4521L303.587 41L306.155 41L306.155 34.0518C306.165 31.4395 304.671 29.9502 302.42 29.9502C300.789 29.9502 299.666 30.7314 299.168 31.9424L299.041 31.9424L299.041 30.0918L296.585 30.0918L296.585 41L299.153 41L299.153 34.6084ZM313.535 41.2148C316.733 41.2148 318.765 38.9639 318.765 35.5898C318.765 32.2061 316.733 29.9502 313.535 29.9502C310.342 29.9502 308.31 32.2061 308.31 35.5898C308.31 38.9639 310.342 41.2148 313.535 41.2148ZM313.55 39.1543C311.782 39.1543 310.913 37.5771 310.913 35.5801C310.913 33.583 311.782 31.9863 313.55 31.9863C315.288 31.9863 316.157 33.583 316.157 35.5801C316.157 37.5771 315.288 39.1543 313.55 39.1543ZM322.891 41L325.572 41L327.618 33.627L327.769 33.627L329.815 41L332.491 41L335.581 30.0918L332.954 30.0918L331.065 37.7188L330.957 37.7188L328.999 30.0918L326.407 30.0918L324.444 37.7627L324.346 37.7627L322.427 30.0918L319.805 30.0918L322.891 41Z" fill="#232229" fill-opacity="1.000000" fill-rule="evenodd"/>
	<rect id="Frame 30" width="164.000000" height="67.000000" transform="translate(200.500000 0.500000)" stroke="#000000" stroke-opacity="1.000000" stroke-width="1.000000"/>
</svg>
