<svg width="320.000000" height="185.000000" viewBox="0 0 320 185" fill="none" xmlns="http://www.w3.org/2000/svg" xmlns:xlink="http://www.w3.org/1999/xlink">
	<desc>
			Created with Pixso.
	</desc>
	<defs/>
	<path id="“" d="M25.7151 22.2969C25.1214 24.776 24.5224 27.4583 23.9182 30.3438C23.3245 33.2188 22.861 35.7656 22.5276 37.9844L16.4339 37.9844L15.9964 37.2812C16.5901 35.0208 17.3974 32.5365 18.4182 29.8281C19.4495 27.1198 20.4964 24.6094 21.5589 22.2969L25.7151 22.2969ZM13.887 22.2969C13.2828 24.776 12.6839 27.4583 12.0901 30.3438C11.4964 33.2188 11.0276 35.7656 10.6839 37.9844L4.66825 37.9844L4.27762 37.2812C4.87137 35.0208 5.66825 32.5365 6.66825 29.8281C7.67867 27.1198 8.71512 24.6094 9.77762 22.2969L13.887 22.2969Z" fill="#A3DAF5" fill-opacity="1.000000" fill-rule="evenodd"/>
	<path id="“" d="M291.285 162.703C291.879 160.224 292.478 157.542 293.082 154.656C293.676 151.781 294.139 149.234 294.472 147.016L300.566 147.016L301.004 147.719C300.41 149.979 299.603 152.464 298.582 155.172C297.551 157.88 296.504 160.391 295.441 162.703L291.285 162.703ZM303.113 162.703C303.717 160.224 304.316 157.542 304.91 154.656C305.504 151.781 305.972 149.234 306.316 147.016L312.332 147.016L312.722 147.719C312.129 149.979 311.332 152.464 310.332 155.172C309.321 157.88 308.285 160.391 307.222 162.703L303.113 162.703Z" fill="#A3DAF5" fill-opacity="1.000000" fill-rule="evenodd"/>
	<path id="Fashion is not about clothes, It is about a look." d="M41.9917 53L46.729 53L46.729 41.8818L57.6098 41.8818L57.6098 37.9004L46.729 37.9004L46.729 30.79L58.7612 30.79L58.7612 26.8174L41.9917 26.8174L41.9917 53ZM68.3469 53.3955C71.4318 53.3955 73.2687 51.9541 74.1125 50.3018L74.2707 50.3018L74.2707 53L78.7179 53L78.7179 39.8604C78.7179 34.666 74.4904 33.1104 70.7375 33.1104C66.6154 33.1104 63.4426 34.9473 62.423 38.5244L66.7385 39.1396C67.2043 37.8037 68.5051 36.6523 70.7638 36.6523C72.9172 36.6523 74.0949 37.751 74.0949 39.6758L74.0949 39.7549C74.0949 41.082 72.6974 41.1523 69.2346 41.5215C65.4201 41.9258 61.7814 43.0684 61.7814 47.4893C61.7814 51.3477 64.6027 53.3955 68.3469 53.3955ZM69.551 49.9941C67.6262 49.9941 66.2375 49.1152 66.2375 47.4102C66.2375 45.6348 67.7844 44.8965 69.8586 44.5977C71.0715 44.4307 73.506 44.1318 74.1037 43.6396L74.1037 45.96C74.1037 48.1396 72.3371 49.9941 69.551 49.9941ZM98.9016 38.5508C98.2688 35.2285 95.6057 33.1104 91.0003 33.1104C86.2717 33.1104 83.0549 35.4307 83.0637 39.0693C83.0549 41.9258 84.8128 43.8242 88.5921 44.5977L91.9407 45.3008C93.7424 45.6963 94.5862 46.4258 94.5862 47.542C94.5862 48.8867 93.1272 49.8975 90.9299 49.8975C88.803 49.8975 87.4231 48.9746 87.0276 47.208L82.5188 47.6475C83.0901 51.251 86.1223 53.3867 90.9387 53.3867C95.8518 53.3867 99.3147 50.8379 99.3235 47.1201C99.3147 44.3164 97.513 42.6025 93.804 41.8027L90.4553 41.082C88.4602 40.6338 87.6692 39.9482 87.678 38.8057C87.6692 37.4785 89.137 36.5557 91.0706 36.5557C93.2063 36.5557 94.3313 37.7246 94.6829 39.0166L98.9016 38.5508ZM107.776 41.4951C107.776 38.6562 109.543 37.0215 112.021 37.0215C114.447 37.0215 115.88 38.5684 115.88 41.2139L115.88 53L120.512 53L120.512 40.4932C120.512 35.7559 117.822 33.1104 113.744 33.1104C110.729 33.1104 108.813 34.4727 107.908 36.6963L107.671 36.6963L107.671 26.8174L103.153 26.8174L103.153 53L107.776 53L107.776 41.4951ZM125.218 53L129.842 53L129.842 33.3652L125.218 33.3652L125.218 53ZM127.539 30.5791C129.015 30.5791 130.211 29.4541 130.211 28.0742C130.211 26.6768 129.015 25.5518 127.539 25.5518C126.062 25.5518 124.858 26.6768 124.858 28.0742C124.858 29.4541 126.062 30.5791 127.539 30.5791ZM143.163 53.3867C148.919 53.3867 152.576 49.335 152.576 43.2617C152.576 37.1709 148.919 33.1104 143.163 33.1104C137.414 33.1104 133.758 37.1709 133.758 43.2617C133.758 49.335 137.414 53.3867 143.163 53.3867ZM143.189 49.6777C140.007 49.6777 138.443 46.8389 138.443 43.2441C138.443 39.6494 140.007 36.7754 143.189 36.7754C146.318 36.7754 147.882 39.6494 147.882 43.2441C147.882 46.8389 146.318 49.6777 143.189 49.6777ZM161.111 41.4951C161.111 38.6562 162.825 37.0215 165.269 37.0215C167.659 37.0215 169.092 38.5947 169.092 41.2139L169.092 53L173.715 53L173.715 40.4932C173.732 35.791 171.043 33.1104 166.991 33.1104C164.056 33.1104 162.034 34.5166 161.138 36.6963L160.909 36.6963L160.909 33.3652L156.488 33.3652L156.488 53L161.111 53L161.111 41.4951ZM187.375 53L191.998 53L191.998 33.3652L187.375 33.3652L187.375 53ZM189.695 30.5791C191.172 30.5791 192.367 29.4541 192.367 28.0742C192.367 26.6768 191.172 25.5518 189.695 25.5518C188.218 25.5518 187.014 26.6768 187.014 28.0742C187.014 29.4541 188.218 30.5791 189.695 30.5791ZM212.271 38.5508C211.638 35.2285 208.975 33.1104 204.37 33.1104C199.641 33.1104 196.424 35.4307 196.433 39.0693C196.424 41.9258 198.182 43.8242 201.961 44.5977L205.31 45.3008C207.112 45.6963 207.956 46.4258 207.956 47.542C207.956 48.8867 206.497 49.8975 204.299 49.8975C202.172 49.8975 200.792 48.9746 200.397 47.208L195.888 47.6475C196.459 51.251 199.492 53.3867 204.308 53.3867C209.221 53.3867 212.684 50.8379 212.693 47.1201C212.684 44.3164 210.882 42.6025 207.173 41.8027L203.825 41.082C201.83 40.6338 201.039 39.9482 201.047 38.8057C201.039 37.4785 202.506 36.5557 204.44 36.5557C206.576 36.5557 207.701 37.7246 208.052 39.0166L212.271 38.5508ZM230.082 41.4951C230.082 38.6562 231.795 37.0215 234.239 37.0215C236.629 37.0215 238.062 38.5947 238.062 41.2139L238.062 53L242.685 53L242.685 40.4932C242.703 35.791 240.013 33.1104 235.961 33.1104C233.026 33.1104 231.004 34.5166 230.108 36.6963L229.879 36.6963L229.879 33.3652L225.459 33.3652L225.459 53L230.082 53L230.082 41.4951ZM255.969 53.3867C261.726 53.3867 265.382 49.335 265.382 43.2617C265.382 37.1709 261.726 33.1104 255.969 33.1104C250.221 33.1104 246.565 37.1709 246.565 43.2617C246.565 49.335 250.221 53.3867 255.969 53.3867ZM255.996 49.6777C252.814 49.6777 251.25 46.8389 251.25 43.2441C251.25 39.6494 252.814 36.7754 255.996 36.7754C259.125 36.7754 260.689 39.6494 260.689 43.2441C260.689 46.8389 259.125 49.6777 255.996 49.6777ZM279.095 33.3652L275.219 33.3652L275.219 28.6631L270.596 28.6631L270.596 33.3652L267.81 33.3652L267.81 36.9424L270.596 36.9424L270.596 47.8584C270.57 51.5586 273.25 53.3691 276.731 53.2725C278.049 53.2285 278.954 52.9736 279.455 52.8066L278.673 49.1943C278.418 49.2559 277.891 49.3701 277.32 49.3701C276.159 49.3701 275.219 48.957 275.219 47.0938L275.219 36.9424L279.095 36.9424L279.095 33.3652ZM8.28081 107.396C11.3658 107.396 13.2027 105.954 14.0464 104.302L14.2046 104.302L14.2046 107L18.6519 107L18.6519 93.8604C18.6519 88.666 14.4244 87.1104 10.6714 87.1104C6.54936 87.1104 3.37651 88.9473 2.35698 92.5244L6.67241 93.1396C7.13823 91.8037 8.43901 90.6523 10.6978 90.6523C12.8511 90.6523 14.0289 91.751 14.0289 93.6758L14.0289 93.7549C14.0289 95.082 12.6314 95.1523 9.1685 95.5215C5.35405 95.9258 1.71538 97.0684 1.71538 101.489C1.71538 105.348 4.53667 107.396 8.28081 107.396ZM9.48491 103.994C7.5601 103.994 6.17143 103.115 6.17143 101.41C6.17143 99.6348 7.71831 98.8965 9.79253 98.5977C11.0054 98.4307 13.44 98.1318 14.0376 97.6396L14.0376 99.96C14.0376 102.14 12.271 103.994 9.48491 103.994ZM23.525 107L28.0778 107L28.0778 103.906L28.3414 103.906C29.0709 105.339 30.5914 107.343 33.9664 107.343C38.5983 107.343 42.0612 103.678 42.0612 97.209C42.0612 90.6611 38.4928 87.1104 33.9577 87.1104C30.4948 87.1104 29.0446 89.1934 28.3414 90.6084L28.1481 90.6084L28.1481 80.8174L23.525 80.8174L23.525 107ZM28.0602 97.1826C28.0602 93.3682 29.695 90.9072 32.6744 90.9072C35.7594 90.9072 37.3414 93.5264 37.3414 97.1826C37.3414 100.865 35.733 103.546 32.6744 103.546C29.7213 103.546 28.0602 100.988 28.0602 97.1826ZM54.5752 107.387C60.332 107.387 63.9883 103.335 63.9883 97.2617C63.9883 91.1709 60.332 87.1104 54.5752 87.1104C48.8271 87.1104 45.1709 91.1709 45.1709 97.2617C45.1709 103.335 48.8271 107.387 54.5752 107.387ZM54.6016 103.678C51.4199 103.678 49.8555 100.839 49.8555 97.2441C49.8555 93.6494 51.4199 90.7754 54.6016 90.7754C57.7305 90.7754 59.2949 93.6494 59.2949 97.2441C59.2949 100.839 57.7305 103.678 54.6016 103.678ZM80.4166 98.7383C80.4166 101.735 78.2809 103.212 76.233 103.212C74.0094 103.212 72.5241 101.647 72.5241 99.1514L72.5241 87.3652L67.901 87.3652L67.901 99.8633C67.901 104.583 70.5817 107.255 74.4401 107.255C77.3844 107.255 79.4498 105.708 80.3463 103.511L80.5573 103.511L80.5573 107L85.0397 107L85.0397 87.3652L80.4166 87.3652L80.4166 98.7383ZM99.6 87.3652L95.724 87.3652L95.724 82.6631L91.1009 82.6631L91.1009 87.3652L88.3148 87.3652L88.3148 90.9424L91.1009 90.9424L91.1009 101.858C91.0746 105.559 93.7552 107.369 97.2357 107.272C98.5541 107.229 99.4593 106.974 99.9603 106.807L99.1781 103.194C98.9232 103.256 98.3959 103.37 97.8246 103.37C96.6644 103.37 95.724 102.957 95.724 101.094L95.724 90.9424L99.6 90.9424L99.6 87.3652ZM120.976 107.387C125.915 107.387 129.053 104.46 129.387 100.285L124.966 100.285C124.57 102.395 123.05 103.616 121.011 103.616C118.128 103.616 116.256 101.199 116.256 97.1826C116.256 93.2188 118.163 90.8369 121.011 90.8369C123.243 90.8369 124.606 92.2695 124.966 94.168L129.387 94.168C129.07 89.9053 125.748 87.1104 120.949 87.1104C115.201 87.1104 111.571 91.2588 111.571 97.2617C111.571 103.203 115.105 107.387 120.976 107.387ZM137.825 80.8174L133.202 80.8174L133.202 107L137.825 107L137.825 80.8174ZM151.146 107.387C156.903 107.387 160.559 103.335 160.559 97.2617C160.559 91.1709 156.903 87.1104 151.146 87.1104C145.398 87.1104 141.742 91.1709 141.742 97.2617C141.742 103.335 145.398 107.387 151.146 107.387ZM151.173 103.678C147.991 103.678 146.426 100.839 146.426 97.2441C146.426 93.6494 147.991 90.7754 151.173 90.7754C154.301 90.7754 155.866 93.6494 155.866 97.2441C155.866 100.839 154.301 103.678 151.173 103.678ZM174.272 87.3652L170.396 87.3652L170.396 82.6631L165.773 82.6631L165.773 87.3652L162.987 87.3652L162.987 90.9424L165.773 90.9424L165.773 101.858C165.746 105.559 168.427 107.369 171.908 107.272C173.226 107.229 174.131 106.974 174.632 106.807L173.85 103.194C173.595 103.256 173.068 103.37 172.496 103.37C171.336 103.37 170.396 102.957 170.396 101.094L170.396 90.9424L174.272 90.9424L174.272 87.3652ZM183.183 95.4951C183.183 92.6562 184.95 91.0215 187.428 91.0215C189.854 91.0215 191.287 92.5684 191.287 95.2139L191.287 107L195.919 107L195.919 94.4932C195.919 89.7559 193.229 87.1104 189.151 87.1104C186.136 87.1104 184.22 88.4727 183.315 90.6963L183.078 90.6963L183.078 80.8174L178.56 80.8174L178.56 107L183.183 107L183.183 95.4951ZM209.318 107.387C213.888 107.387 217.035 105.146 217.852 101.735L213.537 101.243C212.904 102.913 211.374 103.774 209.379 103.774C206.391 103.774 204.405 101.806 204.37 98.4482L218.045 98.4482L218.045 97.0244C218.045 90.1338 213.906 87.1104 209.072 87.1104C203.447 87.1104 199.782 91.2412 199.782 97.2969C199.782 103.458 203.394 107.387 209.318 107.387ZM204.378 95.3281C204.519 92.8232 206.374 90.7139 209.133 90.7139C211.796 90.7139 213.581 92.6562 213.607 95.3281L204.378 95.3281ZM237.475 92.5508C236.842 89.2285 234.179 87.1104 229.573 87.1104C224.845 87.1104 221.628 89.4307 221.637 93.0693C221.628 95.9258 223.386 97.8242 227.165 98.5977L230.514 99.3008C232.316 99.6963 233.159 100.426 233.159 101.542C233.159 102.887 231.7 103.897 229.503 103.897C227.376 103.897 225.996 102.975 225.601 101.208L221.092 101.647C221.663 105.251 224.696 107.387 229.512 107.387C234.425 107.387 237.888 104.838 237.897 101.12C237.888 98.3164 236.086 96.6025 232.377 95.8027L229.029 95.082C227.033 94.6338 226.242 93.9482 226.251 92.8057C226.242 91.4785 227.71 90.5557 229.644 90.5557C231.779 90.5557 232.904 91.7246 233.256 93.0166L237.475 92.5508ZM247.158 103.423L243.062 103.423L242.974 104.855C242.755 108.318 241.849 111.843 241.48 113.39L244.6 113.39C245.216 111.781 246.631 108.046 246.991 104.829L247.158 103.423ZM265.407 80.8174L260.67 80.8174L260.67 107L265.407 107L265.407 80.8174ZM280.162 87.3652L276.286 87.3652L276.286 82.6631L271.663 82.6631L271.663 87.3652L268.877 87.3652L268.877 90.9424L271.663 90.9424L271.663 101.858C271.637 105.559 274.318 107.369 277.798 107.272C279.117 107.229 280.022 106.974 280.523 106.807L279.741 103.194C279.486 103.256 278.958 103.37 278.387 103.37C277.227 103.37 276.286 102.957 276.286 101.094L276.286 90.9424L280.162 90.9424L280.162 87.3652ZM292.978 107L297.601 107L297.601 87.3652L292.978 87.3652L292.978 107ZM295.298 84.5791C296.775 84.5791 297.97 83.4541 297.97 82.0742C297.97 80.6768 296.775 79.5518 295.298 79.5518C293.821 79.5518 292.617 80.6768 292.617 82.0742C292.617 83.4541 293.821 84.5791 295.298 84.5791ZM317.874 92.5508C317.241 89.2285 314.578 87.1104 309.973 87.1104C305.244 87.1104 302.027 89.4307 302.036 93.0693C302.027 95.9258 303.785 97.8242 307.564 98.5977L310.913 99.3008C312.715 99.6963 313.559 100.426 313.559 101.542C313.559 102.887 312.1 103.897 309.902 103.897C307.775 103.897 306.395 102.975 306 101.208L301.491 101.647C302.062 105.251 305.095 107.387 309.911 107.387C314.824 107.387 318.287 104.838 318.296 101.12C318.287 98.3164 316.485 96.6025 312.776 95.8027L309.428 95.082C307.433 94.6338 306.642 93.9482 306.65 92.8057C306.642 91.4785 308.109 90.5557 310.043 90.5557C312.179 90.5557 313.304 91.7246 313.655 93.0166L317.874 92.5508ZM56.2787 161.396C59.3636 161.396 61.2005 159.954 62.0443 158.302L62.2025 158.302L62.2025 161L66.6498 161L66.6498 147.86C66.6498 142.666 62.4222 141.11 58.6693 141.11C54.5472 141.11 51.3744 142.947 50.3548 146.524L54.6703 147.14C55.1361 145.804 56.4369 144.652 58.6957 144.652C60.849 144.652 62.0267 145.751 62.0267 147.676L62.0267 147.755C62.0267 149.082 60.6292 149.152 57.1664 149.521C53.3519 149.926 49.7132 151.068 49.7132 155.489C49.7132 159.348 52.5345 161.396 56.2787 161.396ZM57.4828 157.994C55.558 157.994 54.1693 157.115 54.1693 155.41C54.1693 153.635 55.7162 152.896 57.7904 152.598C59.0033 152.431 61.4378 152.132 62.0355 151.64L62.0355 153.96C62.0355 156.14 60.2689 157.994 57.4828 157.994ZM71.5229 161L76.0756 161L76.0756 157.906L76.3393 157.906C77.0688 159.339 78.5893 161.343 81.9643 161.343C86.5961 161.343 90.059 157.678 90.059 151.209C90.059 144.661 86.4907 141.11 81.9555 141.11C78.4926 141.11 77.0424 143.193 76.3393 144.608L76.1459 144.608L76.1459 134.817L71.5229 134.817L71.5229 161ZM76.058 151.183C76.058 147.368 77.6928 144.907 80.6723 144.907C83.7573 144.907 85.3393 147.526 85.3393 151.183C85.3393 154.865 83.7309 157.546 80.6723 157.546C77.7192 157.546 76.058 154.988 76.058 151.183ZM102.573 161.387C108.33 161.387 111.986 157.335 111.986 151.262C111.986 145.171 108.33 141.11 102.573 141.11C96.825 141.11 93.1688 145.171 93.1688 151.262C93.1688 157.335 96.825 161.387 102.573 161.387ZM102.599 157.678C99.4178 157.678 97.8533 154.839 97.8533 151.244C97.8533 147.649 99.4178 144.775 102.599 144.775C105.728 144.775 107.293 147.649 107.293 151.244C107.293 154.839 105.728 157.678 102.599 157.678ZM128.414 152.738C128.414 155.735 126.279 157.212 124.231 157.212C122.007 157.212 120.522 155.647 120.522 153.151L120.522 141.365L115.899 141.365L115.899 153.863C115.899 158.583 118.58 161.255 122.438 161.255C125.382 161.255 127.448 159.708 128.344 157.511L128.555 157.511L128.555 161L133.038 161L133.038 141.365L128.414 141.365L128.414 152.738ZM147.598 141.365L143.722 141.365L143.722 136.663L139.099 136.663L139.099 141.365L136.313 141.365L136.313 144.942L139.099 144.942L139.099 155.858C139.072 159.559 141.753 161.369 145.234 161.272C146.552 161.229 147.457 160.974 147.958 160.807L147.176 157.194C146.921 157.256 146.394 157.37 145.822 157.37C144.662 157.37 143.722 156.957 143.722 155.094L143.722 144.942L147.598 144.942L147.598 141.365ZM166.056 161.396C169.141 161.396 170.978 159.954 171.821 158.302L171.979 158.302L171.979 161L176.427 161L176.427 147.86C176.427 142.666 172.199 141.11 168.446 141.11C164.324 141.11 161.151 142.947 160.132 146.524L164.447 147.14C164.913 145.804 166.214 144.652 168.473 144.652C170.626 144.652 171.804 145.751 171.804 147.676L171.804 147.755C171.804 149.082 170.406 149.152 166.943 149.521C163.129 149.926 159.49 151.068 159.49 155.489C159.49 159.348 162.312 161.396 166.056 161.396ZM167.26 157.994C165.335 157.994 163.946 157.115 163.946 155.41C163.946 153.635 165.493 152.896 167.567 152.598C168.78 152.431 171.215 152.132 171.812 151.64L171.812 153.96C171.812 156.14 170.046 157.994 167.26 157.994ZM194.657 134.817L190.034 134.817L190.034 161L194.657 161L194.657 134.817ZM207.978 161.387C213.735 161.387 217.391 157.335 217.391 151.262C217.391 145.171 213.735 141.11 207.978 141.11C202.23 141.11 198.574 145.171 198.574 151.262C198.574 157.335 202.23 161.387 207.978 161.387ZM208.004 157.678C204.823 157.678 203.258 154.839 203.258 151.244C203.258 147.649 204.823 144.775 208.004 144.775C211.133 144.775 212.698 147.649 212.698 151.244C212.698 154.839 211.133 157.678 208.004 157.678ZM229.864 161.387C235.621 161.387 239.277 157.335 239.277 151.262C239.277 145.171 235.621 141.11 229.864 141.11C224.116 141.11 220.46 145.171 220.46 151.262C220.46 157.335 224.116 161.387 229.864 161.387ZM229.891 157.678C226.709 157.678 225.145 154.839 225.145 151.244C225.145 147.649 226.709 144.775 229.891 144.775C233.02 144.775 234.584 147.649 234.584 151.244C234.584 154.839 233.02 157.678 229.891 157.678ZM243.19 161L247.813 161L247.813 154.399L249.501 152.598L255.512 161L261.049 161L252.99 149.838L260.601 141.365L255.187 141.365L248.13 149.249L247.813 149.249L247.813 134.817L243.19 134.817L243.19 161ZM266.518 161.281C268.03 161.281 269.313 160.024 269.33 158.469C269.313 156.931 268.03 155.683 266.518 155.683C264.953 155.683 263.688 156.931 263.705 158.469C263.688 160.024 264.953 161.281 266.518 161.281Z" fill="#232229" fill-opacity="1.000000" fill-rule="evenodd"/>
</svg>
