<svg width="285.000000" height="29.000000" viewBox="0 0 285 29" fill="none" xmlns="http://www.w3.org/2000/svg" xmlns:xlink="http://www.w3.org/1999/xlink">
	<desc>
			Created with Pixso.
	</desc>
	<defs>
		<clipPath id="clip1_43">
			<rect id="radix-icons:instagram-logo" width="23.000000" height="23.000000" transform="translate(262.000000 3.000000)" fill="white" fill-opacity="0"/>
		</clipPath>
	</defs>
	<path id="INSTAGRAM" d="M3.25391 8.36328L1.14844 8.36328L1.14844 20L3.25391 20L3.25391 8.36328ZM15.3647 8.36328L13.267 8.36328L13.267 16.2969L13.1654 16.2969L7.68888 8.36328L5.80217 8.36328L5.80217 20L7.90763 20L7.90763 12.0742L8.00529 12.0742L13.4897 20L15.3647 20L15.3647 8.36328ZM24.2347 11.5625L26.262 11.5625C26.2229 9.59766 24.5472 8.20312 22.0706 8.20312C19.6253 8.20312 17.7893 9.57812 17.7972 11.6367C17.7972 13.3086 18.9847 14.2656 20.8987 14.7617L22.2229 15.1016C23.4768 15.4219 24.3089 15.8125 24.3128 16.7148C24.3089 17.7109 23.3636 18.375 21.9886 18.375C20.6722 18.375 19.6487 17.7852 19.5628 16.5625L17.4886 16.5625C17.5745 18.875 19.2972 20.1758 22.0081 20.1758C24.7972 20.1758 26.4143 18.7852 26.4222 16.7344C26.4143 14.7148 24.7503 13.7969 23.0003 13.3789L21.9104 13.1094C20.9534 12.8789 19.9222 12.4766 19.9339 11.5039C19.9378 10.6289 20.7229 9.98828 22.0393 9.98828C23.2972 9.98828 24.1253 10.5742 24.2347 11.5625ZM28.0411 10.1289L31.6387 10.1289L31.6387 20L33.7286 20L33.7286 10.1289L37.3262 10.1289L37.3262 8.36328L28.0411 8.36328L28.0411 10.1289ZM39.4487 20L40.4097 17.1289L44.7847 17.1289L45.7495 20L47.9995 20L43.8979 8.36328L41.2964 8.36328L37.1987 20L39.4487 20ZM40.98 15.4375L42.5542 10.75L42.644 10.75L44.2183 15.4375L40.98 15.4375ZM57.0396 12.0781L59.188 12.0781C58.8326 9.79688 56.8521 8.20312 54.2818 8.20312C51.2349 8.20312 48.9497 10.4414 48.9497 14.1914C48.9497 17.875 51.1333 20.1602 54.3443 20.1602C57.2232 20.1602 59.2857 18.3086 59.2857 15.3086L59.2857 13.9102L54.563 13.9102L54.563 15.5586L57.2466 15.5586C57.2115 17.2148 56.1021 18.2656 54.3521 18.2656C52.4068 18.2656 51.0708 16.8086 51.0708 14.1719C51.0708 11.5508 52.4263 10.0977 54.3091 10.0977C55.7115 10.0977 56.6646 10.8477 57.0396 12.0781ZM61.5822 20L63.6876 20L63.6876 15.7383L65.8361 15.7383L68.1212 20L70.4728 20L67.9572 15.3867C69.3244 14.8359 70.047 13.6641 70.047 12.0859C70.047 9.86328 68.6173 8.36328 65.9454 8.36328L61.5822 8.36328L61.5822 20ZM63.6876 13.9883L63.6876 10.125L65.6212 10.125C67.1954 10.125 67.8986 10.8477 67.8986 12.0859C67.8986 13.3242 67.1954 13.9883 65.6329 13.9883L63.6876 13.9883ZM73.7394 20L74.7004 17.1289L79.0754 17.1289L80.0402 20L82.2902 20L78.1887 8.36328L75.5871 8.36328L71.4894 20L73.7394 20ZM75.2707 15.4375L76.8449 10.75L76.9348 10.75L78.509 15.4375L75.2707 15.4375ZM84.0828 8.36328L84.0828 20L86.1062 20L86.1062 11.9883L86.2117 11.9883L89.4305 19.9648L90.9383 19.9648L94.157 12.0039L94.2625 12.0039L94.2625 20L96.2859 20L96.2859 8.36328L93.7078 8.36328L90.2508 16.7969L90.118 16.7969L86.6609 8.36328L84.0828 8.36328Z" fill="#232229" fill-opacity="1.000000" fill-rule="evenodd"/>
	<path id="Vector 15" d="M109 15L243 15" stroke="#232229" stroke-opacity="1.000000" stroke-width="1.000000" stroke-linecap="round"/>
	<rect id="radix-icons:instagram-logo" width="23.000000" height="23.000000" transform="translate(262.000000 3.000000)" fill="#FFFFFF" fill-opacity="0"/>
	<g clip-path="url(#clip1_43)">
		<path id="Vector" d="M281.795 22.7938C282.295 22.2924 282.688 21.6898 282.944 21.0289C283.189 20.3941 283.358 19.6704 283.407 18.6093C283.456 17.5467 283.468 17.2063 283.468 14.5C283.468 11.7937 283.456 11.4533 283.407 10.3907C283.358 9.32961 283.189 8.60587 282.944 7.97107C282.693 7.30613 282.301 6.70383 281.794 6.20621C281.296 5.69913 280.694 5.30668 280.029 5.05621C279.394 4.81087 278.67 4.64221 277.609 4.59314C276.547 4.54408 276.206 4.53334 273.5 4.53334C270.794 4.53334 270.453 4.54408 269.391 4.59467C268.33 4.64067 267.606 4.80934 266.971 5.05621C266.306 5.30725 265.704 5.69963 265.206 6.20621C264.7 6.7043 264.307 7.30647 264.056 7.97107C263.811 8.60587 263.642 9.32961 263.593 10.3907C263.544 11.4533 263.533 11.7937 263.533 14.5C263.533 17.2063 263.544 17.5467 263.595 18.6093C263.641 19.6704 263.809 20.3941 264.056 21.0289C264.308 21.6944 264.7 22.2955 265.206 22.7938C265.704 23.2998 266.307 23.6923 266.971 23.9438C267.606 24.1891 268.33 24.3578 269.391 24.4069C270.453 24.4544 270.794 24.4667 273.5 24.4667C276.206 24.4667 276.547 24.4544 277.609 24.4053C278.67 24.3593 279.394 24.1907 280.029 23.9438C280.691 23.6876 281.292 23.2959 281.794 22.7938L281.795 22.7938M265.067 13.327L265.067 15.673C265.064 16.9319 265.064 17.2585 265.097 17.973C265.137 18.8715 265.186 19.5309 265.337 20.0277C265.481 20.5061 265.642 20.9937 266.169 21.5794C266.697 22.1667 267.204 22.4319 267.851 22.6282C268.5 22.8229 269.314 22.8643 270.021 22.8965C270.821 22.9333 271.14 22.9333 272.821 22.9333L274.635 22.9333C275.926 22.9349 276.251 22.9364 276.974 22.9027C277.872 22.8613 278.531 22.8122 279.029 22.6635C279.506 22.5193 279.994 22.3568 280.579 21.8309C281.167 21.3034 281.432 20.7943 281.628 20.1473C281.823 19.5002 281.866 18.686 281.898 17.9791C281.933 17.1787 281.933 16.8613 281.933 15.1854L281.933 13.8207C281.933 12.1402 281.933 11.8228 281.898 11.0209C281.866 10.314 281.823 9.49981 281.628 8.85274C281.433 8.20414 281.168 7.69661 280.579 7.16914C279.992 6.64167 279.506 6.48067 279.029 6.33654C278.531 6.18781 277.872 6.13721 276.974 6.09734C276.195 6.06531 275.415 6.05508 274.635 6.06667L272.821 6.06667C271.14 6.06667 270.821 6.06667 270.021 6.10194C269.314 6.13414 268.5 6.17707 267.851 6.37181C267.204 6.56807 266.697 6.83334 266.169 7.42061C265.642 8.00787 265.479 8.49394 265.337 8.97234C265.186 9.46914 265.137 10.1285 265.097 11.027C265.064 11.7415 265.064 12.0681 265.067 13.327L265.067 13.327M273.5 11.05C272.585 11.05 271.708 11.4135 271.06 12.0605C270.413 12.7075 270.05 13.585 270.05 14.5C270.05 15.415 270.413 16.2925 271.06 16.9395C271.708 17.5865 272.585 17.95 273.5 17.95C274.415 17.95 275.292 17.5865 275.939 16.9395C276.587 16.2925 276.95 15.415 276.95 14.5C276.95 13.585 276.587 12.7075 275.939 12.0605C275.292 11.4135 274.415 11.05 273.5 11.05L273.5 11.05M268.517 14.5C268.517 13.1783 269.042 11.9108 269.976 10.9763C270.911 10.0417 272.178 9.51667 273.5 9.51667C274.822 9.51667 276.089 10.0417 277.024 10.9763C277.958 11.9108 278.483 13.1783 278.483 14.5C278.483 15.8217 277.958 17.0892 277.024 18.0238C276.089 18.9583 274.822 19.4833 273.5 19.4833C272.178 19.4833 270.911 18.9583 269.976 18.0238C269.042 17.0892 268.517 15.8217 268.517 14.5L268.517 14.5M278.821 10.3293C279.126 10.3293 279.418 10.2082 279.634 9.99251C279.849 9.77685 279.971 9.48434 279.971 9.17934C279.971 8.87434 279.849 8.58183 279.634 8.36617C279.418 8.1505 279.126 8.02934 278.821 8.02934C278.516 8.02934 278.223 8.1505 278.007 8.36617C277.792 8.58183 277.671 8.87434 277.671 9.17934C277.671 9.48434 277.792 9.77685 278.007 9.99251C278.223 10.2082 278.516 10.3293 278.821 10.3293L278.821 10.3293Z" fill="#111111" fill-opacity="1.000000" fill-rule="evenodd"/>
	</g>
</svg>
