<svg width="37.433594" height="40.180603" viewBox="0 0 37.4336 40.1806" fill="none" xmlns="http://www.w3.org/2000/svg" xmlns:xlink="http://www.w3.org/1999/xlink">
	<desc>
			Created with Pixso.
	</desc>
	<defs/>
	<path id="Union" d="M24.1516 17.8637C31.8109 18.134 37.4336 19.0286 37.4336 20.0904C37.4336 21.1523 31.8109 22.0468 24.1516 22.3171C29.395 28.5082 32.7999 33.5455 32.1222 34.2963C31.4445 35.0472 26.8976 31.275 21.3091 25.4662C21.0651 33.9514 20.2577 40.1806 19.2992 40.1806C18.3407 40.1806 17.5332 33.9514 17.2892 25.4662C11.7008 31.275 7.15393 35.0471 6.4762 34.2963C5.79834 33.5455 9.20337 28.5082 14.4467 22.3171C6.78748 22.0468 1.16467 21.1523 1.16467 20.0904C1.16467 19.0286 6.78748 18.134 14.4467 17.8637C9.20337 11.6726 5.79834 6.63538 6.47607 5.88452C7.15393 5.13367 11.7008 8.90582 17.2892 14.7146C17.5332 6.22937 18.3407 0.000244141 19.2992 0.000244141C20.2577 0.000244141 21.0651 6.22937 21.3091 14.7146C26.8976 8.90582 31.4445 5.13367 32.1222 5.88452C32.7999 6.63538 29.395 11.6725 24.1516 17.8637L24.1516 17.8637Z" fill="#FE6A3A" fill-opacity="0" fill-rule="nonzero"/>
	<path id="Union" d="M19.269 0.15155C19.2795 0.147705 19.2896 0.145813 19.2992 0.145813C19.3043 0.145813 19.3097 0.146362 19.3151 0.147461L19.344 0.00482178C19.3291 0.00177002 19.3141 0.000244141 19.2992 0.000244141C19.2725 0.000244141 19.246 0.00506592 19.2195 0.0146484L19.269 0.15155M18.9088 0.351501C18.9595 0.259277 19.0106 0.184631 19.0625 0.128235L19.1697 0.226746C19.1261 0.27417 19.0817 0.33905 19.0365 0.421509L18.9088 0.351501M18.6145 1.10797C18.662 0.949097 18.7102 0.806335 18.7592 0.680298L18.8949 0.732971C18.8475 0.854919 18.8005 0.993835 18.754 1.14966L18.6145 1.10797M18.4971 1.53992C18.5164 1.46246 18.5358 1.3877 18.5554 1.31567L18.6958 1.35382C18.6766 1.42468 18.6575 1.49847 18.6383 1.57507L18.4971 1.53992M18.3832 2.03693C18.4019 1.94879 18.4207 1.86328 18.4397 1.78046L18.5818 1.81177L18.5253 2.06824L18.3832 2.03693M18.2729 2.59656C18.291 2.49823 18.3092 2.40234 18.3276 2.30908L18.4706 2.33624L18.416 2.62372L18.2729 2.59656M18.1669 3.21655C18.1842 3.10834 18.2017 3.0025 18.2194 2.89917L18.363 2.92297L18.3104 3.2403L18.1669 3.21655M18.0649 3.89441C18.0815 3.77673 18.0984 3.66138 18.1154 3.5484L18.2594 3.5694L18.209 3.91541L18.0649 3.89441M17.9869 4.47522C17.9976 4.39185 18.0083 4.30945 18.0192 4.22803L18.1636 4.24689L18.1312 4.49408L17.9869 4.47522M17.9238 4.98743C17.9342 4.90009 17.9446 4.81372 17.9551 4.72839L18.0996 4.74579L18.0685 5.00482L17.9238 4.98743M17.863 5.52277C17.873 5.43164 17.8831 5.34149 17.8932 5.25226L18.0378 5.26837L18.0077 5.53888L17.863 5.52277M17.8044 6.08069C17.814 5.98584 17.8237 5.89197 17.8335 5.79895L17.9783 5.8139L17.9492 6.09558L17.8044 6.08069M17.7482 6.66034C17.7573 6.56195 17.7666 6.46442 17.776 6.3678L17.9209 6.38165L17.8931 6.67413L17.7482 6.66034M17.6942 7.26111C17.703 7.15924 17.7119 7.05829 17.7208 6.95813L17.8658 6.97089L17.8392 7.27386L17.6942 7.26111M17.6428 7.88226C17.6511 7.7771 17.6597 7.67273 17.6682 7.56915L17.8132 7.58093L17.7878 7.89404L17.6428 7.88226M17.5939 8.52307C17.6018 8.41467 17.6099 8.30707 17.618 8.20026L17.7632 8.21112L17.739 8.53394L17.5939 8.52307M17.5524 9.11151C17.5583 9.02307 17.5645 8.93512 17.5706 8.8476L17.7158 8.85767L17.6976 9.12158L17.5524 9.11151M17.5172 9.64801C17.5229 9.55768 17.5287 9.46777 17.5345 9.37836L17.6798 9.3877L17.6625 9.65735L17.5172 9.64801M17.4838 10.1957C17.4891 10.1035 17.4946 10.0118 17.5002 9.92047L17.6456 9.9292L17.629 10.2045L17.4838 10.1957M17.452 10.7544C17.4572 10.6604 17.4624 10.5668 17.4677 10.4738L17.613 10.4818L17.5974 10.7625L17.452 10.7544M17.4222 11.3236C17.427 11.2278 17.4319 11.1326 17.4369 11.0377L17.5823 11.0452L17.5676 11.3311L17.4222 11.3236M17.3942 11.903C17.3987 11.8055 17.4033 11.7086 17.408 11.612L17.5533 11.6189L17.5396 11.9099L17.3942 11.903M17.368 12.4922C17.3722 12.3932 17.3765 12.2946 17.3809 12.1964L17.5262 12.2027L17.5134 12.4985L17.368 12.4922M17.3438 13.0909C17.3477 12.9904 17.3516 12.8901 17.3556 12.7903L17.5011 12.7961L17.4893 13.0966L17.3438 13.0909M17.3214 13.6987C17.325 13.5967 17.3286 13.495 17.3324 13.3937L17.4779 13.3989L17.4669 13.7039L17.3214 13.6987M17.3011 14.3153C17.3043 14.2119 17.3076 14.1087 17.311 14.0059L17.4565 14.0106L17.4467 14.32L17.3011 14.3153M17.1781 14.5993C17.2151 14.6376 17.2521 14.6761 17.2892 14.7146C17.2911 14.6466 17.2931 14.5787 17.2952 14.511L17.394 14.6136L17.3778 14.6293L17.4373 14.631L17.4347 14.7188L17.4347 14.7189L17.4248 15.0655L17.1843 14.8156L17.1843 14.8156L17.0732 14.7003L17.146 14.6302L17.1462 14.6226L17.1537 14.6228L17.1781 14.5993M16.7366 14.1434C16.8098 14.2186 16.8832 14.2943 16.9568 14.3702L16.8523 14.4716L16.6321 14.2448L16.7366 14.1434M16.2999 13.6964C16.3723 13.7701 16.4448 13.8442 16.5176 13.9188L16.4136 14.0206L16.1959 13.7983L16.2999 13.6964M15.8683 13.2587C15.9398 13.3309 16.0115 13.4034 16.0835 13.4764L15.9799 13.5787L15.7648 13.361L15.8683 13.2587M15.4421 12.8305C15.5127 12.9011 15.5835 12.972 15.6545 13.0434L15.5515 13.1462L15.3391 12.9333L15.4421 12.8305M15.0217 12.412C15.0913 12.481 15.1611 12.5503 15.2312 12.6201L15.1287 12.7233L14.9192 12.5154L15.0217 12.412M14.6074 12.0037C14.6759 12.0709 14.7448 12.1385 14.8137 12.2066L14.7117 12.3104L14.5054 12.1075L14.6074 12.0037M14.1995 11.6057C14.2668 11.6712 14.3346 11.7371 14.4026 11.8034L14.301 11.9078L14.0979 11.7101L14.1995 11.6057M13.7981 11.2183C13.8645 11.282 13.931 11.3461 13.9979 11.4107L13.897 11.5156L13.6971 11.3232L13.7981 11.2183M13.4039 10.8419C13.469 10.9037 13.5344 10.966 13.6001 11.0287L13.4998 11.1342L13.3035 10.9473L13.4039 10.8419M12.9336 10.3984C13.0139 10.4736 13.0947 10.5496 13.176 10.6262L13.0763 10.7323L12.8339 10.5045L12.9336 10.3984M12.4581 9.95673C12.5363 10.0288 12.615 10.1016 12.6943 10.1752L12.5955 10.2821L12.3593 10.0636L12.4581 9.95673M11.9955 9.534C12.0715 9.60284 12.1481 9.67249 12.2251 9.74298L12.1272 9.85065L11.8976 9.64166L11.9955 9.534M11.5465 9.13074C11.6202 9.19629 11.6945 9.26263 11.7693 9.3299L11.6722 9.43842L11.4496 9.23926L11.5465 9.13074M11.1118 8.7475C11.1831 8.80969 11.2549 8.87268 11.3274 8.93658L11.2314 9.04602L11.0159 8.85699L11.1118 8.7475M10.692 8.38495C10.7606 8.44366 10.83 8.50317 10.9 8.5636L10.8052 8.67407L10.5972 8.49542L10.692 8.38495M10.2876 8.04358C10.3536 8.09869 10.4204 8.15466 10.4878 8.21161L10.3942 8.32312L10.194 8.15509L10.2876 8.04358M9.82812 7.6662C9.91455 7.73608 10.0023 7.80768 10.0914 7.88104L9.99939 7.99384L9.73608 7.77905L9.82812 7.6662M9.27917 7.23279C9.36731 7.30066 9.45715 7.37073 9.54871 7.44299L9.45911 7.5578L9.18958 7.3476L9.27917 7.23279M8.77087 6.85236C8.85205 6.91119 8.93506 6.97241 9.01978 7.03583L8.93335 7.15302L8.68445 6.96954L8.77087 6.85236M8.30554 6.52679C8.37939 6.57635 8.45508 6.6283 8.53271 6.68256L8.44922 6.80188C8.37231 6.74805 8.29736 6.69666 8.22437 6.64771L8.30554 6.52679M7.88525 6.25812C7.95142 6.29803 8.01953 6.34045 8.0896 6.38525L8.01123 6.50787C7.94202 6.46368 7.875 6.422 7.81006 6.38275L7.88525 6.25812M7.3114 5.95099C7.42834 6.00348 7.55566 6.06854 7.69275 6.14569L7.62134 6.27258C7.48743 6.1972 7.36426 6.13428 7.25171 6.0838L7.3114 5.95099M6.69678 5.79059C6.77295 5.78589 6.86267 5.7973 6.96533 5.82422L6.92834 5.96503C6.84021 5.94189 6.76599 5.93219 6.70569 5.93591L6.69678 5.79059M6.42969 5.95557C6.44214 5.92871 6.45764 5.90503 6.47607 5.88452C6.48645 5.87311 6.49756 5.86279 6.50964 5.85345L6.59875 5.96863C6.59351 5.97266 6.58862 5.97711 6.58423 5.98206C6.57556 5.99164 6.56812 6.00323 6.56177 6.01691L6.42969 5.95557M6.42114 6.42371C6.39954 6.32196 6.38916 6.23175 6.3905 6.15356L6.53613 6.15601C6.53491 6.22284 6.54407 6.302 6.56348 6.39349L6.42114 6.42371M6.68274 7.16797C6.61755 7.02228 6.56299 6.88708 6.51929 6.76282L6.65662 6.71448C6.69885 6.83447 6.75183 6.96582 6.81567 7.10852L6.68274 7.16797M6.88904 7.59644C6.85217 7.52435 6.81726 7.45416 6.7843 7.38599L6.91541 7.32263C6.94775 7.38971 6.98218 7.45886 7.01868 7.53015L6.88904 7.59644M7.13367 8.05176C7.08911 7.97217 7.04639 7.89435 7.00562 7.81848L7.13391 7.74957C7.17419 7.82465 7.21643 7.90161 7.26074 7.98059L7.13367 8.05176M7.42383 8.55115C7.3717 8.46436 7.32153 8.37933 7.27319 8.29608L7.39856 8.22205L7.54919 8.47717L7.42383 8.55115M7.75793 9.09259C7.69861 8.99896 7.64111 8.90704 7.58545 8.81677L7.70886 8.73956L7.88135 9.01544L7.75793 9.09259M8.13452 9.67401C8.06836 9.57391 8.00378 9.47534 7.94104 9.37842L8.06287 9.29871L8.25635 9.59424L8.13452 9.67401M8.44897 10.1423C8.40076 10.0714 8.35327 10.0013 8.30652 9.93182L8.42712 9.85022L8.56958 10.0607L8.44897 10.1423M8.74744 10.5755C8.69617 10.502 8.64575 10.4291 8.59595 10.3569L8.7157 10.2739L8.86719 10.4926L8.74744 10.5755M9.06372 11.0248C9.00952 10.9486 8.95605 10.873 8.90344 10.7982L9.02222 10.7141L9.18262 10.9407L9.06372 11.0248M9.39734 11.4893C9.34033 11.4106 9.28394 11.3326 9.22839 11.2552L9.34644 11.17L9.51538 11.4042L9.39734 11.4893M9.7478 11.9686C9.68799 11.8875 9.62891 11.807 9.57043 11.7272L9.68774 11.641L9.86511 11.8824L9.7478 11.9686M10.1146 12.4619C10.0521 12.3785 9.99036 12.2957 9.9292 12.2135L10.0458 12.1264L10.2313 12.3748L10.1146 12.4619M10.4974 12.9686C10.4324 12.8831 10.3679 12.7981 10.3041 12.7136L10.42 12.6257L10.6135 12.8806L10.4974 12.9686M10.8955 13.4876C10.8279 13.4002 10.761 13.3132 10.6947 13.2268L10.8102 13.1381L11.0109 13.3989L10.8955 13.4876M11.2252 13.9123C11.1694 13.8409 11.1141 13.7698 11.0591 13.699L11.174 13.6096L11.3401 13.8229L11.2252 13.9123M11.5643 14.3444C11.5071 14.2718 11.4502 14.1995 11.3937 14.1274L11.5081 14.0374L11.6788 14.2544L11.5643 14.3444M11.9127 14.7837C11.8539 14.7099 11.7954 14.6364 11.7374 14.5632L11.8513 14.4726L12.0266 14.6931L11.9127 14.7837M12.27 15.2298C12.2097 15.1549 12.1498 15.0803 12.0902 15.0059L12.2037 14.9148L12.3835 15.1386L12.27 15.2298M12.636 15.6824C12.5743 15.6064 12.5129 15.5307 12.4519 15.4553L12.5651 15.3636L12.7491 15.5907L12.636 15.6824M13.0105 16.1411C12.9474 16.0641 12.8846 15.9874 12.8223 15.9109L12.9349 15.8188L13.1232 16.0489L13.0105 16.1411M13.3932 16.6056C13.3287 16.5277 13.2646 16.4501 13.2008 16.3726L13.3131 16.2799L13.5055 16.5129L13.3932 16.6056M13.7839 17.0757C13.7181 16.9969 13.6527 16.9183 13.5876 16.84L13.6995 16.7468L13.8959 16.9825L13.7839 17.0757M14.1825 17.5509C14.1155 17.4713 14.0487 17.3918 13.9823 17.3126L14.0938 17.219L14.2939 17.4572L14.1825 17.5509M14.2914 17.8693C14.343 17.8674 14.3948 17.8655 14.4467 17.8637C14.4067 17.8165 14.3668 17.7693 14.327 17.7223L14.4414 17.7182L14.4423 17.7415L14.4957 17.6963L14.5577 17.7696L14.5577 17.7697L14.7517 17.9986L14.4519 18.0092L14.4518 18.0092L14.2977 18.0147L14.2939 17.9086L14.2734 17.8844L14.2914 17.8693M13.6816 17.893C13.7826 17.8889 13.884 17.8848 13.986 17.8808L13.9917 18.0262L13.6874 18.0385L13.6816 17.893M13.08 17.9195C13.1794 17.9149 13.2793 17.9103 13.3796 17.9059L13.3862 18.0514L13.0865 18.0649L13.08 17.9195M12.4882 17.9485C12.5859 17.9435 12.6842 17.9385 12.7828 17.9337L12.7902 18.0791L12.4955 18.0939L12.4882 17.9485M11.9066 17.9801C12.0027 17.9746 12.0991 17.9692 12.196 17.964L12.2042 18.1094L11.9147 18.1254L11.9066 17.9801M11.3356 18.0142C11.4298 18.0083 11.5245 18.0025 11.6198 17.9968L11.6285 18.1422L11.3445 18.1595L11.3356 18.0142M10.7755 18.0507C10.8679 18.0444 10.9608 18.0381 11.0542 18.0321L11.0638 18.1774L10.7853 18.1959L10.7755 18.0507M10.2271 18.0895C10.3175 18.0828 10.4084 18.0762 10.4999 18.0698L10.5104 18.215L10.2375 18.2347L10.2271 18.0895M9.69031 18.1307C9.77881 18.1236 9.86768 18.1166 9.95715 18.1098L9.96851 18.2549L9.70166 18.2758L9.69031 18.1307M9.16589 18.1741C9.25232 18.1667 9.33911 18.1594 9.42651 18.1521L9.43884 18.2972L9.17822 18.3192L9.16589 18.1741M8.53235 18.2311C8.63733 18.2213 8.74316 18.2115 8.84985 18.2019L8.86328 18.3469L8.54565 18.3761L8.53235 18.2311M7.91296 18.2921C8.0144 18.2817 8.11682 18.2714 8.21997 18.2612L8.23462 18.4061L7.92761 18.437L7.91296 18.2921M7.31531 18.3564C7.41309 18.3454 7.51172 18.3345 7.61133 18.3239L7.62732 18.4686L7.33118 18.5011L7.31531 18.3564M6.73999 18.4238C6.83398 18.4123 6.92883 18.4009 7.02478 18.3897L7.04211 18.5342L6.75732 18.5684L6.73999 18.4238M6.18799 18.4943C6.27795 18.4823 6.36902 18.4704 6.46106 18.4587L6.47986 18.603L6.20679 18.6386L6.18799 18.4943M5.66016 18.5677C5.74609 18.5552 5.83301 18.5429 5.92102 18.5306L5.94153 18.6748L5.68054 18.7119L5.66016 18.5677M5.1571 18.644C5.23889 18.6311 5.32166 18.6182 5.40552 18.6055L5.42773 18.7494L5.17944 18.7879L5.1571 18.644M4.55896 18.7443C4.67236 18.7242 4.78821 18.7043 4.90649 18.6847L4.93103 18.8282L4.5835 18.8878L4.55896 18.7443M3.90881 18.8679C4.01208 18.8468 4.11792 18.826 4.22632 18.8054L4.25439 18.9482L3.93689 19.0107L3.90881 18.8679M3.3208 18.9968C3.41345 18.9749 3.50879 18.9532 3.60681 18.9317L3.63916 19.0736L3.35315 19.1388L3.3208 18.9968M2.79761 19.1309C2.87915 19.1082 2.96362 19.0856 3.0509 19.0633L3.08704 19.2043C3.00061 19.2264 2.91711 19.2487 2.83667 19.2712L2.79761 19.1309M2.34192 19.2698C2.41211 19.2463 2.48511 19.223 2.56116 19.1998L2.60352 19.3391C2.52881 19.3618 2.45703 19.3848 2.38818 19.4078L2.34192 19.2698M1.72717 19.5172C1.83948 19.4612 1.9679 19.4059 2.11182 19.3516L2.16321 19.4877C2.02332 19.5406 1.89954 19.5939 1.79211 19.6475L1.72717 19.5172M1.25159 19.8629C1.29688 19.8038 1.3595 19.7455 1.43909 19.6878L1.52454 19.8057C1.45593 19.8553 1.40344 19.9039 1.36707 19.9515L1.25159 19.8629M1.17834 20.1808C1.16919 20.1508 1.16467 20.1207 1.16467 20.0904C1.16467 20.0742 1.16602 20.0579 1.16858 20.0417L1.31238 20.0651C1.31091 20.0735 1.3103 20.082 1.3103 20.0904C1.3103 20.1063 1.31274 20.1224 1.31763 20.1387L1.17834 20.1808M1.49695 20.5329C1.40967 20.4756 1.33911 20.4175 1.28577 20.3589L1.39355 20.261C1.43835 20.3103 1.49939 20.3604 1.57678 20.4112L1.49695 20.5329M2.1853 20.8565C2.0459 20.8059 1.9198 20.7545 1.80774 20.7024L1.86914 20.5704C1.97693 20.6205 2.09888 20.6703 2.23499 20.7196L2.1853 20.8565M2.61438 20.9971C2.53699 20.974 2.46265 20.9507 2.39111 20.9273L2.4364 20.789C2.50659 20.812 2.57983 20.8348 2.65588 20.8575L2.61438 20.9971M3.11194 21.1331C3.02344 21.1108 2.93762 21.0883 2.85474 21.0657L2.89307 20.9252C2.97498 20.9476 3.05969 20.9698 3.14746 20.9918L3.11194 21.1331M3.67529 21.264C3.57605 21.2426 3.47949 21.221 3.3855 21.1992L3.41736 21.0571L3.70715 21.1219L3.67529 21.264M4.30188 21.3897C4.19238 21.3692 4.08533 21.3485 3.98096 21.3276L4.00854 21.1846L4.32959 21.2468L4.30188 21.3897M4.9707 21.5067C4.85767 21.4882 4.7467 21.4694 4.63806 21.4504L4.66235 21.3069L4.995 21.3632L4.9707 21.5067M5.46387 21.5841C5.37952 21.5714 5.29626 21.5587 5.21411 21.5458L5.23621 21.4019L5.48596 21.4402L5.46387 21.5841M5.9823 21.6586C5.8938 21.6465 5.8064 21.6342 5.71997 21.6218L5.74023 21.4776L6.00256 21.5145L5.9823 21.6586M6.52502 21.7303C6.43262 21.7186 6.34119 21.7068 6.25061 21.6948L6.26929 21.5505L6.5437 21.5859L6.52502 21.7303M7.09155 21.7989C6.99512 21.7877 6.89978 21.7764 6.80542 21.765L6.82251 21.6204L7.10864 21.6544L7.09155 21.7989M7.68066 21.8644C7.58069 21.8538 7.48157 21.843 7.3833 21.832L7.39905 21.6873L7.69641 21.7197L7.68066 21.8644M8.29187 21.9266C8.18823 21.9166 8.08545 21.9063 7.98352 21.8959L7.99805 21.7511L8.30627 21.7818L8.29187 21.9266M8.92407 21.9855C8.81702 21.976 8.71082 21.9664 8.60535 21.9565L8.61865 21.8115L8.93726 21.8406L8.92407 21.9855M9.4873 22.0338C9.39966 22.0266 9.31262 22.0192 9.22595 22.0118L9.23816 21.8668L9.49951 21.8887L9.4873 22.0338M10.0194 22.0758C9.92969 22.069 9.84045 22.0621 9.75183 22.0551L9.76306 21.9099L10.0306 21.9307L10.0194 22.0758M10.5634 22.1155C10.4718 22.1091 10.3806 22.1026 10.2899 22.0959L10.3003 21.9507L10.5739 21.9703L10.5634 22.1155M11.119 22.153C11.0255 22.1469 10.9324 22.1407 10.8398 22.1345L10.8494 21.9893L11.1287 22.0077L11.119 22.153M11.6859 22.1879C11.5905 22.1823 11.4956 22.1766 11.4011 22.1707L11.4099 22.0254L11.6947 22.0426L11.6859 22.1879M12.2634 22.2205C12.1664 22.2153 12.0696 22.2099 11.9734 22.2045L11.9813 22.0591L12.2715 22.0751L12.2634 22.2205M12.8514 22.2505C12.7526 22.2457 12.6542 22.2408 12.5562 22.2358L12.5634 22.0904L12.8586 22.1051L12.8514 22.2505M13.4493 22.278C13.3489 22.2736 13.2488 22.2691 13.1492 22.2645L13.1556 22.1191L13.4558 22.1325L13.4493 22.278M14.0566 22.3028C13.9547 22.2988 13.853 22.2948 13.7518 22.2907L13.7576 22.1452L14.0625 22.1573L14.0566 22.3028M14.3601 22.4195C14.3889 22.3854 14.4177 22.3513 14.4467 22.3171C14.3948 22.3153 14.343 22.3135 14.2913 22.3116L14.2734 22.2964L14.3356 22.2231L14.3661 22.249L14.369 22.1687L14.4518 22.1716L14.4519 22.1716L14.7517 22.1823L14.5577 22.4112L14.5577 22.4113L14.4957 22.4846L14.4423 22.4393L14.4415 22.4626L14.3586 22.4597L14.3601 22.4195M13.9823 22.8682C14.0487 22.789 14.1155 22.7096 14.1825 22.6299L14.2939 22.7236L14.0938 22.9619L13.9823 22.8682M13.5876 23.3409C13.6527 23.2625 13.7181 23.184 13.7839 23.1052L13.8958 23.1984L13.6995 23.4341L13.5876 23.3409M13.2008 23.8082C13.2646 23.7308 13.3287 23.6531 13.3932 23.5752L13.5055 23.6679L13.3131 23.9009L13.2008 23.8082M12.8223 24.2699C12.8846 24.1934 12.9474 24.1167 13.0105 24.0398L13.1232 24.132L12.9348 24.3621L12.8223 24.2699M12.4519 24.7256C12.5129 24.6501 12.5743 24.5745 12.636 24.4985L12.7491 24.5901L12.5651 24.8173L12.4519 24.7256M12.0902 25.1749C12.1498 25.1006 12.2097 25.0259 12.27 24.951L12.3835 25.0422L12.2037 25.2661L12.0902 25.1749M11.7374 25.6176C11.7954 25.5444 11.8539 25.4709 11.9127 25.3971L12.0266 25.4877L11.8513 25.7083L11.7374 25.6176M11.3937 26.0533C11.4502 25.9813 11.5071 25.909 11.5643 25.8364L11.6787 25.9264L11.5081 26.1434L11.3937 26.0533M11.0591 26.4818C11.1141 26.411 11.1694 26.3399 11.2252 26.2685L11.3401 26.358L11.174 26.5712L11.0591 26.4818M10.6947 26.954C10.761 26.8676 10.8279 26.7806 10.8955 26.6932L11.0109 26.782L10.8101 27.0428L10.6947 26.954M10.3041 27.4672C10.3679 27.3828 10.4324 27.2977 10.4974 27.2122L10.6135 27.3002L10.42 27.5552L10.3041 27.4672M9.9292 27.9673C9.99036 27.8851 10.0521 27.8023 10.1146 27.7189L10.2313 27.806L10.0458 28.0544L9.9292 27.9673M9.57043 28.4537C9.62891 28.3738 9.68799 28.2933 9.7478 28.2123L9.86511 28.2984L9.68774 28.5399L9.57043 28.4537M9.22839 28.9257C9.28394 28.8482 9.34033 28.7702 9.39734 28.6915L9.51538 28.7767L9.34644 29.0109L9.22839 28.9257M8.90344 29.3826C8.95605 29.3077 9.00952 29.2322 9.06372 29.1561L9.18262 29.2402L9.02222 29.4667L8.90344 29.3826M8.59595 29.824C8.64575 29.7518 8.69617 29.6788 8.74744 29.6053L8.86719 29.6882L8.7157 29.9069L8.59595 29.824M8.30652 30.249C8.35327 30.1796 8.40076 30.1094 8.44897 30.0386L8.56958 30.1202L8.42712 30.3306L8.30652 30.249M7.94104 30.8024C8.00378 30.7054 8.06836 30.6069 8.13452 30.5068L8.25635 30.5865L8.06287 30.8821L7.94104 30.8024M7.58545 31.3641C7.64111 31.2738 7.69861 31.1818 7.75793 31.0882L7.88135 31.1654L7.70886 31.4412L7.58545 31.3641M7.27319 31.8847C7.32153 31.8015 7.3717 31.7164 7.42383 31.6296L7.54919 31.7037L7.39856 31.9587L7.27319 31.8847M7.00562 32.3624C7.04639 32.2864 7.08911 32.2087 7.13367 32.129L7.26074 32.2002C7.21643 32.2792 7.17419 32.3562 7.13391 32.4313L7.00562 32.3624M6.7843 32.7949C6.81726 32.7266 6.85217 32.6565 6.88904 32.5844L7.01868 32.6507C6.98218 32.7219 6.94775 32.7911 6.91541 32.8582L6.7843 32.7949M6.51929 33.418C6.56299 33.2938 6.61755 33.1586 6.68274 33.0129L6.81567 33.0723C6.75183 33.215 6.69885 33.3464 6.65662 33.4663L6.51929 33.418M6.3905 34.0272C6.38928 33.949 6.39954 33.8588 6.42114 33.7571L6.56348 33.7874C6.54407 33.8788 6.53503 33.958 6.53613 34.0248L6.3905 34.0272M6.96533 34.3566C6.86267 34.3835 6.77295 34.3949 6.69678 34.3903L6.70581 34.2449C6.76599 34.2487 6.84021 34.2389 6.92847 34.2158L6.96533 34.3566M7.69275 34.0351C7.55566 34.1122 7.42834 34.1773 7.3114 34.2299L7.25183 34.097C7.36426 34.0465 7.48743 33.9836 7.62134 33.9083L7.69275 34.0351M8.0896 33.7956C8.01953 33.8404 7.95142 33.8828 7.88525 33.9227L7.81006 33.798C7.875 33.7589 7.94202 33.7172 8.01123 33.6729L8.0896 33.7956M8.53271 33.4982C8.4552 33.5525 8.37939 33.6044 8.30554 33.654L8.22437 33.5331C8.29736 33.4842 8.37231 33.4328 8.44922 33.379L8.53271 33.4982M9.01978 33.145C8.93506 33.2084 8.85205 33.2696 8.77087 33.3285L8.68457 33.2113L8.93347 33.0278L9.01978 33.145M9.54871 32.7378C9.45715 32.8101 9.36731 32.8802 9.27917 32.9481L9.18958 32.8333L9.45911 32.623L9.54871 32.7378M10.0914 32.2998C10.0023 32.3732 9.91455 32.4448 9.82812 32.5146L9.73608 32.4018L9.99939 32.187L10.0914 32.2998M10.4878 31.9692C10.4204 32.0261 10.3536 32.0822 10.2876 32.1372L10.194 32.0257L10.3942 31.8577L10.4878 31.9692M10.9 31.6172C10.8301 31.6776 10.7606 31.7372 10.692 31.7958L10.5972 31.6854L10.8052 31.5068L10.9 31.6172M11.3274 31.2443C11.2549 31.3081 11.1831 31.3712 11.1118 31.4333L11.0159 31.3239L11.2314 31.1348L11.3274 31.2443M11.7693 30.851C11.6945 30.9182 11.6202 30.9846 11.5466 31.0501L11.4496 30.9416L11.6722 30.7424L11.7693 30.851M12.2252 30.4379C12.1481 30.5083 12.0715 30.578 11.9955 30.6469L11.8976 30.5392L12.1272 30.3302L12.2252 30.4379M12.6943 30.0056C12.615 30.0792 12.5363 30.152 12.4581 30.2241L12.3593 30.1172L12.5955 29.8987L12.6943 30.0056M13.176 29.5546C13.0947 29.6313 13.0139 29.7072 12.9336 29.7823L12.834 29.6763L13.0763 29.4485L13.176 29.5546M13.6001 29.1521C13.5344 29.2148 13.469 29.2771 13.4039 29.3389L13.3035 29.2335L13.4998 29.0466L13.6001 29.1521M13.9979 28.7701C13.931 28.8347 13.8645 28.8988 13.7981 28.9625L13.6971 28.8576L13.897 28.6653L13.9979 28.7701M14.4026 28.3774C14.3346 28.4437 14.2668 28.5096 14.1995 28.5751L14.0979 28.4708L14.301 28.2731L14.4026 28.3774M14.8137 27.9742C14.7448 28.0422 14.6759 28.1099 14.6074 28.1771L14.5054 28.0733L14.7117 27.8704L14.8137 27.9742M15.2312 27.5608C15.1611 27.6305 15.0913 27.6998 15.0217 27.7687L14.9192 27.6655L15.1287 27.4575L15.2312 27.5608M15.6545 27.1375C15.5835 27.2088 15.5127 27.2798 15.4421 27.3503L15.3391 27.2475L15.5515 27.0346L15.6545 27.1375M16.0835 26.7044C16.0115 26.7774 15.9398 26.85 15.8683 26.9221L15.7648 26.8198L15.9799 26.6021L16.0835 26.7044M16.5176 26.2621C16.4448 26.3365 16.3723 26.4106 16.2999 26.4844L16.1959 26.3826L16.4136 26.1602L16.5176 26.2621M16.9568 25.8106C16.8832 25.8866 16.8098 25.9622 16.7366 26.0375L16.6321 25.936L16.8523 25.7092L16.9568 25.8106M17.2952 25.6699C17.2931 25.6021 17.2911 25.5342 17.2892 25.4662C17.2419 25.5153 17.1948 25.5641 17.1478 25.6129L17.146 25.5507L17.0732 25.4805L17.1843 25.3653L17.1843 25.3652L17.4248 25.1153L17.4347 25.462L17.4347 25.462L17.4393 25.6182L17.3422 25.6211L17.2952 25.6699M17.3132 26.2424C17.3098 26.1398 17.3065 26.0369 17.3032 25.9335L17.4487 25.9288L17.4587 26.2377L17.3132 26.2424M17.3348 26.8537C17.3311 26.7526 17.3274 26.6511 17.3239 26.5492L17.4692 26.5439L17.4803 26.8484L17.3348 26.8537M17.3583 27.456C17.3542 27.3564 17.3502 27.2564 17.3463 27.156L17.4918 27.1502L17.5038 27.4502L17.3583 27.456M17.3838 28.049C17.3794 27.9509 17.375 27.8525 17.3707 27.7537L17.5162 27.7473L17.5292 28.0426L17.3838 28.049M17.411 28.6323C17.4064 28.5359 17.4017 28.4391 17.3971 28.3419L17.5426 28.3349L17.5564 28.6253L17.411 28.6323M17.4402 29.2054C17.4352 29.1108 17.4303 29.0157 17.4254 28.9201L17.5708 28.9126L17.5856 29.1979L17.4402 29.2054M17.4712 29.7682C17.4658 29.6754 17.4606 29.582 17.4554 29.4882L17.6008 29.48L17.6166 29.7601L17.4712 29.7682M17.5039 30.3203C17.4983 30.2292 17.4928 30.1376 17.4873 30.0457L17.6327 30.0369L17.6493 30.3115L17.5039 30.3203M17.5385 30.8612C17.5325 30.772 17.5267 30.6823 17.521 30.5922L17.6663 30.5828L17.6837 30.8518L17.5385 30.8612M17.5754 31.4023C17.569 31.3112 17.5626 31.2196 17.5563 31.1274L17.7015 31.1173L17.7207 31.3923L17.5754 31.4023M17.6234 32.0507C17.6151 31.9442 17.6071 31.837 17.5991 31.7289L17.7443 31.718L17.7686 32.0397L17.6234 32.0507M17.6738 32.6796C17.6652 32.5764 17.6567 32.4724 17.6483 32.3676L17.7933 32.3557L17.819 32.6677L17.6738 32.6796M17.7268 33.2884C17.7178 33.1887 17.7089 33.088 17.7 32.9866L17.845 32.9737L17.8718 33.2756L17.7268 33.2884M17.7822 33.8764C17.7727 33.7802 17.7634 33.683 17.7542 33.5851L17.899 33.5712L17.9271 33.8625L17.7822 33.8764M17.8398 34.4429C17.8301 34.3503 17.8203 34.2568 17.8108 34.1624L17.9556 34.1473L17.9847 34.4279L17.8398 34.4429M17.8999 34.9871C17.8896 34.8983 17.8796 34.8085 17.8696 34.7178L18.0143 34.7015L18.0446 34.9709L17.8999 34.9871M17.962 35.5085C17.9515 35.4235 17.941 35.3376 17.9307 35.2507L18.0752 35.2332L18.1066 35.4908L17.962 35.5085M18.0264 36.0065C18.0155 35.9255 18.0046 35.8434 17.9939 35.7603L18.1383 35.7413L18.1708 35.9875L18.0264 36.0065M18.1266 36.7064C18.1095 36.5944 18.0927 36.4801 18.0759 36.3635L18.22 36.3422L18.2706 36.6851L18.1266 36.7064M18.2311 37.3492C18.2133 37.247 18.1957 37.1423 18.1783 37.0351L18.3219 37.011L18.3746 37.3251L18.2311 37.3492M18.3397 37.9327C18.3213 37.8406 18.303 37.7458 18.2849 37.6486L18.4279 37.621L18.4827 37.9052L18.3397 37.9327M18.4521 38.4545C18.4331 38.3728 18.4142 38.2885 18.3955 38.2015L18.5375 38.1697L18.5942 38.4227L18.4521 38.4545M18.5682 38.9121C18.5486 38.8413 18.5292 38.7678 18.5098 38.6915L18.6509 38.6557C18.6699 38.731 18.6892 38.8035 18.7085 38.8732L18.5682 38.9121M18.7916 39.5814C18.7421 39.4622 18.6932 39.3258 18.6453 39.1731L18.7841 39.1294C18.8311 39.2787 18.8784 39.4108 18.926 39.5256L18.7916 39.5814M19.0966 40.087C19.0446 40.0387 18.993 39.9719 18.9423 39.8875L19.0669 39.8124C19.111 39.8856 19.1539 39.9416 19.1957 39.9803L19.0966 40.087M19.3788 40.1662C19.3524 40.1758 19.3258 40.1806 19.2992 40.1806C19.2842 40.1806 19.2693 40.1791 19.2543 40.176L19.2833 40.0334C19.2887 40.0344 19.2939 40.035 19.2992 40.035C19.3087 40.035 19.3188 40.0331 19.3293 40.0293L19.3788 40.1662M19.6895 39.8293C19.6389 39.9216 19.5876 39.9962 19.5359 40.0526L19.4287 39.9541C19.4723 39.9067 19.5166 39.8417 19.5618 39.7593L19.6895 39.8293M19.9838 39.0729C19.9364 39.2317 19.8881 39.3745 19.8391 39.5005L19.7035 39.4478C19.7509 39.3259 19.7977 39.187 19.8444 39.0312L19.9838 39.0729M20.1012 38.6409C20.0819 38.7184 20.0625 38.7932 20.043 38.8652L19.9025 38.827C19.9218 38.7561 19.9409 38.6823 19.96 38.6057L20.1012 38.6409M20.2152 38.1439C20.1965 38.2321 20.1776 38.3176 20.1587 38.4004L20.0165 38.3691L20.073 38.1126L20.2152 38.1439M20.3253 37.5842C20.3073 37.6826 20.2891 37.7785 20.2708 37.8718L20.1277 37.8446L20.1823 37.5571L20.3253 37.5842M20.4315 36.9643C20.4141 37.0725 20.3966 37.1783 20.3789 37.2817L20.2352 37.2579L20.2878 36.9405L20.4315 36.9643M20.5333 36.2864C20.5167 36.4041 20.4999 36.5195 20.4829 36.6324L20.3389 36.6115L20.3893 36.2654L20.5333 36.2864M20.6115 35.7056C20.6007 35.789 20.59 35.8714 20.5791 35.9528L20.4348 35.9339L20.467 35.6868L20.6115 35.7056M20.6744 35.1934C20.6641 35.2808 20.6537 35.3671 20.6432 35.4525L20.4987 35.4351L20.5299 35.176L20.6744 35.1934M20.7352 34.6581C20.7253 34.7492 20.7153 34.8394 20.7051 34.9286L20.5604 34.9125L20.5906 34.6419L20.7352 34.6581M20.7939 34.1002C20.7843 34.195 20.7747 34.2889 20.7649 34.3819L20.6201 34.3669L20.649 34.0853L20.7939 34.1002M20.8502 33.5205C20.8411 33.6189 20.8317 33.7164 20.8224 33.813L20.6774 33.7992L20.7053 33.5067L20.8502 33.5205M20.9041 32.9197C20.8953 33.0216 20.8865 33.1226 20.8774 33.2227L20.7324 33.21L20.759 32.907L20.9041 32.9197M20.9556 32.2986C20.9471 32.4037 20.9387 32.5081 20.9302 32.6116L20.785 32.5999L20.8104 32.2868L20.9556 32.2986M21.0045 31.6578C20.9966 31.7662 20.9885 31.8738 20.9803 31.9806L20.8352 31.9697L20.8593 31.6469L21.0045 31.6578M21.046 31.0693C21.0399 31.1578 21.0339 31.2457 21.0277 31.3332L20.8826 31.3232L20.9008 31.0593L21.046 31.0693M21.0812 30.5328C21.0754 30.6232 21.0696 30.7131 21.0637 30.8025L20.9185 30.7932L20.9359 30.5235L21.0812 30.5328M21.1146 29.9851C21.1091 30.0773 21.1036 30.1691 21.098 30.2604L20.9528 30.2516L20.9692 29.9764L21.1146 29.9851M21.1462 29.4265C21.1411 29.5204 21.1359 29.614 21.1306 29.7071L20.9852 29.699L21.0009 29.4183L21.1462 29.4265M21.1761 28.8572C21.1713 28.953 21.1664 29.0483 21.1614 29.1431L21.016 29.1357L21.0308 28.8498L21.1761 28.8572M21.2041 28.2779C21.1996 28.3753 21.1951 28.4723 21.1903 28.5688L21.0449 28.562L21.0587 28.271L21.2041 28.2779M21.2303 27.6887C21.2261 27.7877 21.2218 27.8863 21.2175 27.9845L21.072 27.9781L21.0848 27.6824L21.2303 27.6887M21.2545 27.09C21.2507 27.1905 21.2467 27.2907 21.2427 27.3905L21.0972 27.3847L21.1091 27.0842L21.2545 27.09M21.2769 26.4821C21.2733 26.5842 21.2697 26.6859 21.266 26.7872L21.1205 26.782L21.1313 26.4769L21.2769 26.4821M21.2971 25.8655C21.2939 25.969 21.2906 26.0721 21.2872 26.1749L21.1417 26.1702L21.1516 25.8609L21.2971 25.8655M21.4202 25.5815C21.3832 25.5432 21.3462 25.5048 21.3091 25.4662C21.3071 25.5342 21.3052 25.6021 21.3031 25.6699L21.2042 25.5672L21.2205 25.5516L21.161 25.5499L21.1636 25.462L21.1636 25.462L21.1736 25.1154L21.4139 25.3652L21.4141 25.3653L21.525 25.4806L21.4523 25.5507L21.4521 25.5583L21.4446 25.558L21.4202 25.5815M21.8617 26.0375C21.7886 25.9622 21.7151 25.8866 21.6416 25.8106L21.746 25.7092L21.9662 25.9361L21.8617 26.0375M22.2985 26.4844C22.2261 26.4107 22.1534 26.3365 22.0807 26.2621L22.1847 26.1602L22.4025 26.3826L22.2985 26.4844M22.73 26.9221C22.6586 26.85 22.5868 26.7774 22.5149 26.7045L22.6184 26.6021L22.8336 26.8198L22.73 26.9221M23.1561 27.3503C23.0856 27.2798 23.0148 27.2088 22.9438 27.1375L23.0469 27.0347L23.2593 27.2476L23.1561 27.3503M23.5765 27.7688C23.5071 27.6999 23.4373 27.6306 23.3671 27.5608L23.4697 27.4575L23.6792 27.6655L23.5765 27.7688M23.991 28.1771C23.9224 28.1099 23.8536 28.0423 23.7845 27.9742L23.8866 27.8704L24.093 28.0733L23.991 28.1771M24.3989 28.5751C24.3314 28.5096 24.2638 28.4438 24.1957 28.3774L24.2972 28.2731L24.5005 28.4708L24.3989 28.5751M24.8002 28.9625C24.7339 28.8988 24.6672 28.8347 24.6003 28.7701L24.7014 28.6653L24.9011 28.8576L24.8002 28.9625M25.1945 29.339C25.1293 29.2772 25.0638 29.2148 24.9982 29.1521L25.0986 29.0467L25.2948 29.2335L25.1945 29.339M25.6647 29.7824C25.5844 29.7072 25.5035 29.6313 25.4222 29.5546L25.522 29.4485L25.7644 29.6763L25.6647 29.7824M26.1403 30.2241C26.062 30.152 25.9833 30.0792 25.9041 30.0056L26.0029 29.8987L26.2391 30.1172L26.1403 30.2241M26.6028 30.6469C26.5269 30.578 26.4502 30.5084 26.3732 30.4379L26.4712 30.3302L26.7008 30.5392L26.6028 30.6469M27.0518 31.0501C26.978 30.9846 26.9038 30.9182 26.829 30.851L26.926 30.7424L27.1488 30.9416L27.0518 31.0501M27.4865 31.4333C27.4153 31.3712 27.3434 31.3081 27.2709 31.2443L27.3669 31.1348L27.5825 31.3239L27.4865 31.4333M27.9064 31.7959C27.8376 31.7372 27.7683 31.6776 27.6984 31.6172L27.7932 31.5068L28.0012 31.6854L27.9064 31.7959M28.3107 32.1373C28.2446 32.0822 28.1779 32.0261 28.1105 31.9692L28.2041 31.8577L28.4043 32.0258L28.3107 32.1373M28.7703 32.5146C28.6837 32.4448 28.5959 32.3732 28.5068 32.2998L28.5989 32.187L28.8622 32.4018L28.7703 32.5146M29.3192 32.9481C29.231 32.8802 29.1411 32.8101 29.0497 32.7379L29.1392 32.623L29.4087 32.8333L29.3192 32.9481M29.8274 33.3285C29.7462 33.2696 29.6632 33.2084 29.5785 33.145L29.6649 33.0278L29.9138 33.2113L29.8274 33.3285M30.2927 33.6541C30.2189 33.6044 30.1432 33.5525 30.0656 33.4982L30.149 33.379C30.226 33.4327 30.3009 33.4841 30.3739 33.5331L30.2927 33.6541M30.713 33.9227C30.6469 33.8828 30.5787 33.8404 30.5087 33.7956L30.5872 33.673C30.6562 33.7171 30.7233 33.7589 30.7883 33.7981L30.713 33.9227M31.2869 34.2299C31.1699 34.1773 31.0426 34.1123 30.9056 34.0352L30.9771 33.9083C31.1108 33.9836 31.234 34.0465 31.3466 34.097L31.2869 34.2299M31.9015 34.3903C31.8253 34.3949 31.7356 34.3835 31.6329 34.3566L31.6699 34.2158C31.7582 34.239 31.8324 34.2487 31.8926 34.2449L31.9015 34.3903M32.1772 33.7571C32.1987 33.8589 32.2091 33.9491 32.2078 34.0273L32.0623 34.0248C32.0634 33.958 32.0542 33.8788 32.0348 33.7874L32.1772 33.7571M31.9155 33.0129C31.9807 33.1586 32.0353 33.2938 32.0791 33.418L31.9418 33.4663C31.8995 33.3464 31.8464 33.215 31.7827 33.0723L31.9155 33.0129M31.7092 32.5844C31.7461 32.6565 31.781 32.7267 31.814 32.7949L31.683 32.8582C31.6505 32.7911 31.6161 32.7219 31.5796 32.6507L31.7092 32.5844M31.4646 32.129C31.5092 32.2087 31.5519 32.2864 31.5927 32.3624L31.4645 32.4313C31.4241 32.3562 31.3818 32.2792 31.3376 32.2002L31.4646 32.129M31.1744 31.6296C31.2266 31.7164 31.2767 31.8015 31.3252 31.8848L31.1998 31.9587L31.0492 31.7037L31.1744 31.6296M30.8403 31.0882C30.8997 31.1818 30.9572 31.2738 31.0128 31.3641L30.8894 31.4412L30.7169 31.1654L30.8403 31.0882M30.4637 30.5068C30.53 30.6069 30.5945 30.7054 30.6572 30.8024L30.5355 30.8821L30.3419 30.5865L30.4637 30.5068M30.1493 30.0386C30.1975 30.1094 30.245 30.1796 30.2917 30.249L30.1711 30.3306L30.0288 30.1202L30.1493 30.0386M29.8508 29.6053C29.9021 29.6788 29.9526 29.7518 30.0023 29.824L29.8827 29.9069L29.7312 29.6882L29.8508 29.6053M29.5345 29.1561C29.5887 29.2322 29.6422 29.3077 29.6949 29.3826L29.576 29.4667L29.4158 29.2402L29.5345 29.1561M29.201 28.6915C29.2581 28.7702 29.3143 28.8482 29.3699 28.9257L29.2518 29.0109L29.0829 28.7767L29.201 28.6915M28.8506 28.2123C28.9103 28.2933 28.9695 28.3738 29.0278 28.4537L28.9105 28.5399L28.7332 28.2984L28.8506 28.2123M28.4836 27.7189C28.5461 27.8023 28.6079 27.8851 28.6691 27.9673L28.5525 28.0544L28.3671 27.806L28.4836 27.7189M28.1008 27.2122C28.1659 27.2977 28.2303 27.3828 28.2942 27.4672L28.1782 27.5552L27.9849 27.3002L28.1008 27.2122M27.7029 26.6932C27.7704 26.7806 27.8373 26.8676 27.9036 26.954L27.7882 27.0428L27.5875 26.782L27.7029 26.6932M27.373 26.2685C27.4288 26.3399 27.4843 26.411 27.5392 26.4818L27.4243 26.5712L27.2582 26.358L27.373 26.2685M27.0339 25.8364C27.0912 25.909 27.1482 25.9813 27.2047 26.0533L27.0902 26.1434L26.9196 25.9264L27.0339 25.8364M26.6855 25.3971C26.7444 25.4709 26.8029 25.5444 26.8608 25.6176L26.7469 25.7082L26.5717 25.4877L26.6855 25.3971M26.3282 24.951C26.3885 25.0259 26.4485 25.1006 26.5081 25.1749L26.3945 25.2661L26.2147 25.0422L26.3282 24.951M25.9623 24.4985C26.024 24.5744 26.0853 24.6501 26.1464 24.7255L26.0333 24.8172L25.8492 24.5901L25.9623 24.4985M25.5878 24.0397C25.6509 24.1167 25.7136 24.1934 25.7761 24.2699L25.6635 24.3621L25.4751 24.132L25.5878 24.0397M25.2051 23.5752C25.2695 23.6531 25.3336 23.7308 25.3975 23.8082L25.2852 23.9009L25.0928 23.6679L25.2051 23.5752M24.8143 23.1052C24.8801 23.184 24.9456 23.2625 25.0107 23.3409L24.8988 23.434L24.7025 23.1984L24.8143 23.1052M24.4158 22.6299C24.4829 22.7095 24.5496 22.7889 24.6161 22.8682L24.5045 22.9619L24.3043 22.7236L24.4158 22.6299M24.307 22.3116C24.2552 22.3135 24.2035 22.3153 24.1516 22.3171C24.1917 22.3643 24.2314 22.4114 24.2712 22.4585L24.1569 22.4626L24.156 22.4393L24.1025 22.4845L24.0405 22.4113L24.0405 22.4112L23.8466 22.1823L24.1464 22.1716L24.1465 22.1716L24.3005 22.1661L24.3043 22.2723L24.3248 22.2964L24.307 22.3116M24.9167 22.2878C24.8157 22.292 24.7142 22.2961 24.6124 22.3L24.6066 22.1545L24.9109 22.1423L24.9167 22.2878M25.5183 22.2614C25.4188 22.266 25.319 22.2705 25.2188 22.2749L25.2122 22.1295L25.5117 22.1159L25.5183 22.2614M26.1101 22.2323C26.0123 22.2374 25.9141 22.2423 25.8154 22.2471L25.8081 22.1017L26.1028 22.0869L26.1101 22.2323M26.6918 22.2007C26.5957 22.2062 26.4991 22.2115 26.4022 22.2168L26.3942 22.0715L26.6836 22.0554L26.6918 22.2007M27.2627 22.1667C27.1685 22.1725 27.0737 22.1783 26.9786 22.184L26.9697 22.0387L27.2539 22.0214L27.2627 22.1667M27.8228 22.1302C27.7303 22.1365 27.6375 22.1426 27.5442 22.1487L27.5344 22.0035L27.8131 21.9849L27.8228 22.1302M28.3713 22.0913C28.2809 22.098 28.1899 22.1046 28.0985 22.1111L28.088 21.9659L28.3608 21.9461L28.3713 22.0913M28.908 22.0502C28.8196 22.0572 28.7306 22.0641 28.6411 22.071L28.6298 21.9259L28.8966 21.905L28.908 22.0502M29.4324 22.0067C29.3461 22.0142 29.2592 22.0215 29.1718 22.0287L29.1595 21.8837L29.4202 21.8616L29.4324 22.0067M30.0659 21.9497C29.9609 21.9596 29.8551 21.9693 29.7484 21.9789L29.7351 21.8339L30.0526 21.8047L30.0659 21.9497M30.6853 21.8887C30.5839 21.8992 30.4816 21.9094 30.3783 21.9196L30.3638 21.7748L30.6708 21.7438L30.6853 21.8887M31.2831 21.8245C31.1853 21.8354 31.0865 21.8463 30.9869 21.857L30.9711 21.7123L31.2671 21.6797L31.2831 21.8245M31.8583 21.757C31.7644 21.7686 31.6694 21.7799 31.5735 21.7911L31.5563 21.6466L31.8411 21.6125L31.8583 21.757M32.4103 21.6865C32.3203 21.6985 32.2292 21.7104 32.1373 21.7222L32.1184 21.5778L32.3915 21.5422L32.4103 21.6865M32.9382 21.6131C32.8523 21.6255 32.7653 21.6379 32.6774 21.6502L32.6569 21.506L32.9177 21.4689L32.9382 21.6131M33.4412 21.5368C33.3595 21.5497 33.2767 21.5626 33.1929 21.5753L33.1705 21.4315L33.4188 21.3929L33.4412 21.5368M34.0394 21.4365C33.926 21.4566 33.8102 21.4765 33.6919 21.4962L33.6672 21.3527L34.0148 21.293L34.0394 21.4365M34.6896 21.313C34.5863 21.334 34.4805 21.3549 34.3721 21.3754L34.344 21.2326L34.6614 21.1701L34.6896 21.313M35.2776 21.184C35.1848 21.2059 35.0895 21.2277 34.9915 21.2491L34.9591 21.1072L35.2452 21.0421L35.2776 21.184M35.8008 21.0499C35.7191 21.0726 35.6346 21.0952 35.5475 21.1176L35.5112 20.9765C35.5977 20.9544 35.6812 20.9321 35.7617 20.9097L35.8008 21.0499M36.2565 20.911C36.1863 20.9346 36.1132 20.9579 36.0372 20.981L35.9948 20.8418C36.0696 20.819 36.1414 20.7961 36.2102 20.773L36.2565 20.911M36.8712 20.6636C36.7588 20.7197 36.6304 20.7749 36.4865 20.8293L36.4351 20.6931C36.575 20.6402 36.6987 20.587 36.8062 20.5333L36.8712 20.6636M37.3468 20.318C37.3015 20.377 37.2388 20.4354 37.1593 20.493L37.0739 20.3751C37.1423 20.3254 37.1948 20.2769 37.2313 20.2294L37.3468 20.318M37.42 20C37.4291 20.03 37.4336 20.0601 37.4336 20.0904C37.4336 20.1067 37.4324 20.1229 37.4297 20.139L37.286 20.1157C37.2874 20.1072 37.2881 20.0988 37.2881 20.0904C37.2881 20.0746 37.2856 20.0585 37.2806 20.0421L37.42 20M37.1014 19.6479C37.1886 19.7052 37.2593 19.7632 37.3125 19.822L37.2048 19.9199C37.16 19.8705 37.0989 19.8204 37.0215 19.7696L37.1014 19.6479M36.413 19.3243C36.5525 19.3749 36.6785 19.4263 36.7906 19.4784L36.7292 19.6104C36.6213 19.5603 36.4994 19.5106 36.3633 19.4612L36.413 19.3243M35.984 19.1838C36.0613 19.2068 36.1357 19.23 36.2073 19.2535L36.1619 19.3918C36.0917 19.3688 36.0186 19.346 35.9424 19.3232L35.984 19.1838M35.4865 19.0478C35.575 19.0701 35.6606 19.0925 35.7437 19.1152L35.7052 19.2556C35.6234 19.2332 35.5386 19.211 35.4509 19.189L35.4865 19.0478M34.923 18.9168C35.0222 18.9382 35.1189 18.9598 35.2128 18.9816L35.1809 19.1237L34.8912 19.0588L34.923 18.9168M34.2964 18.7911C34.4059 18.8116 34.5129 18.8323 34.6174 18.8533L34.5897 18.9962L34.2687 18.934L34.2964 18.7911M33.6276 18.6741C33.7407 18.6926 33.8516 18.7114 33.9602 18.7304L33.9359 18.8739L33.6033 18.8176L33.6276 18.6741M33.1345 18.5967C33.2188 18.6094 33.302 18.6222 33.3843 18.6351L33.3622 18.7789L33.1124 18.7406L33.1345 18.5967M32.6161 18.5222C32.7045 18.5344 32.792 18.5466 32.8784 18.5591L32.858 18.7032L32.5958 18.6663L32.6161 18.5222M32.0732 18.4505C32.1656 18.4622 32.2572 18.4741 32.3477 18.486L32.329 18.6304L32.0546 18.5949L32.0732 18.4505M31.5068 18.3819C31.6031 18.3931 31.6985 18.4044 31.793 18.4158L31.7758 18.5604L31.4896 18.5265L31.5068 18.3819M30.9176 18.3164C31.0177 18.3271 31.1168 18.3378 31.215 18.3488L31.1992 18.4935L30.9019 18.4612L30.9176 18.3164M30.3065 18.2542C30.4102 18.2643 30.5128 18.2745 30.6147 18.2849L30.6003 18.4297L30.292 18.399L30.3065 18.2542M29.6742 18.1953C29.7812 18.2048 29.8876 18.2145 29.9929 18.2243L29.9797 18.3693L29.661 18.3403L29.6742 18.1953M29.111 18.1471C29.1986 18.1543 29.2858 18.1616 29.3723 18.1689L29.3602 18.314L29.0989 18.2922L29.111 18.1471M28.579 18.105C28.6686 18.1119 28.7578 18.1188 28.8464 18.1258L28.8352 18.2709L28.5676 18.2502L28.579 18.105M28.0349 18.0653C28.1266 18.0717 28.2178 18.0782 28.3083 18.0849L28.298 18.2301L28.0245 18.2105L28.0349 18.0653M27.4792 18.0279C27.5728 18.0339 27.6659 18.04 27.7585 18.0463L27.7489 18.1915L27.4697 18.1732L27.4792 18.0279M26.9125 17.9929C27.0078 17.9985 27.1028 18.0043 27.1973 18.0101L27.1885 18.1554L26.9037 18.1382L26.9125 17.9929M26.3348 17.9604C26.432 17.9656 26.5287 17.9709 26.625 17.9763L26.6169 18.1217L26.3269 18.1057L26.3348 17.9604M25.7469 17.9304C25.8457 17.9351 25.9441 17.94 26.0421 17.945L26.0349 18.0905L25.7396 18.0757L25.7469 17.9304M25.149 17.9029C25.2495 17.9072 25.3495 17.9117 25.4492 17.9163L25.4426 18.0617L25.1426 18.0483L25.149 17.9029M24.5416 17.8781C24.6437 17.882 24.7452 17.886 24.8464 17.8901L24.8407 18.0356L24.5359 18.0235L24.5416 17.8781M24.2383 17.7614C24.2095 17.7954 24.1805 17.8295 24.1516 17.8637C24.2035 17.8655 24.2552 17.8674 24.307 17.8693L24.3248 17.8844L24.2628 17.9578L24.2322 17.9318L24.2294 18.0121L24.1465 18.0092L24.1465 18.0092L23.8466 17.9986L24.0405 17.7697L24.0405 17.7696L24.1025 17.6963L24.156 17.7415L24.1569 17.7182L24.2396 17.7211L24.2383 17.7614M24.6161 17.3126C24.5496 17.3918 24.4829 17.4713 24.4158 17.5509L24.3043 17.4572L24.5046 17.219L24.6161 17.3126M25.0107 16.84C24.9456 16.9183 24.8801 16.9969 24.8143 17.0757L24.7025 16.9825L24.8988 16.7468L25.0107 16.84M25.3975 16.3726C25.3336 16.4501 25.2695 16.5277 25.2051 16.6056L25.0928 16.5129L25.2852 16.2799L25.3975 16.3726M25.7761 15.9109C25.7136 15.9874 25.6509 16.0641 25.5878 16.1411L25.4751 16.0489L25.6635 15.8187L25.7761 15.9109M26.1464 15.4553C26.0853 15.5307 26.024 15.6064 25.9623 15.6823L25.8492 15.5906L26.0333 15.3636L26.1464 15.4553M26.5081 15.0059C26.4485 15.0803 26.3885 15.1549 26.3282 15.2298L26.2147 15.1386L26.3945 14.9148L26.5081 15.0059M26.8608 14.5632C26.8029 14.6364 26.7444 14.7099 26.6855 14.7837L26.5717 14.6931L26.7469 14.4726L26.8608 14.5632M27.2047 14.1274C27.1482 14.1995 27.0912 14.2718 27.0339 14.3444L26.9196 14.2544L27.0903 14.0374L27.2047 14.1274M27.5392 13.699C27.4843 13.7698 27.4288 13.8409 27.373 13.9123L27.2582 13.8229L27.4243 13.6096L27.5392 13.699M27.9036 13.2268C27.8373 13.3132 27.7704 13.4002 27.7029 13.4876L27.5875 13.3989L27.7882 13.138L27.9036 13.2268M28.2942 12.7136C28.2303 12.798 28.1659 12.8831 28.1008 12.9686L27.9849 12.8806L28.1782 12.6256L28.2942 12.7136M28.6692 12.2135C28.608 12.2957 28.5461 12.3785 28.4836 12.4619L28.3671 12.3748L28.5525 12.1264L28.6692 12.2135M29.0278 11.7272C28.9695 11.807 28.9103 11.8875 28.8506 11.9686L28.7332 11.8824L28.9105 11.641L29.0278 11.7272M29.3699 11.2551C29.3143 11.3326 29.2581 11.4106 29.201 11.4893L29.0829 11.4041L29.2518 11.17L29.3699 11.2551M29.6949 10.7982C29.6422 10.873 29.5887 10.9486 29.5345 11.0248L29.4158 10.9407L29.576 10.7141L29.6949 10.7982M30.0023 10.3569C29.9526 10.4291 29.9021 10.502 29.8508 10.5755L29.7312 10.4926L29.8827 10.2739L30.0023 10.3569M30.2917 9.93182C30.245 10.0012 30.1975 10.0714 30.1493 10.1423L30.0288 10.0607L30.1711 9.85022L30.2917 9.93182M30.6572 9.37842C30.5945 9.47534 30.53 9.57385 30.4637 9.67401L30.3419 9.59424L30.5355 9.29871L30.6572 9.37842M31.0128 8.81677C30.9572 8.90698 30.8997 8.99896 30.8403 9.09259L30.7169 9.01544L30.8894 8.73956L31.0128 8.81677M31.3252 8.29608C31.2767 8.37933 31.2266 8.46436 31.1744 8.55115L31.0492 8.47711L31.1998 8.22205L31.3252 8.29608M31.5927 7.81848C31.5519 7.89435 31.5092 7.97217 31.4646 8.05176L31.3376 7.98059C31.3818 7.90155 31.4242 7.82452 31.4645 7.74957L31.5927 7.81848M31.814 7.38593C31.7811 7.45416 31.7461 7.52435 31.7092 7.59644L31.5796 7.53009C31.6161 7.45886 31.6505 7.38971 31.683 7.32263L31.814 7.38593M32.0791 6.76282C32.0354 6.88702 31.9807 7.02228 31.9155 7.16797L31.7827 7.10852C31.8464 6.96582 31.8995 6.83447 31.9418 6.71448L32.0791 6.76282M32.2078 6.15356C32.2091 6.23175 32.1987 6.32196 32.1772 6.42371L32.0348 6.39349C32.0542 6.302 32.0634 6.22284 32.0623 6.15601L32.2078 6.15356M32.0886 5.85345C32.1007 5.86279 32.1119 5.87311 32.1222 5.88452C32.1406 5.90503 32.1561 5.92871 32.1686 5.95551L32.0366 6.01685C32.0303 6.00323 32.0227 5.99164 32.0142 5.98206C32.0096 5.97711 32.0049 5.97266 31.9996 5.96863L32.0886 5.85345M31.6329 5.82422C31.7356 5.7973 31.8253 5.78589 31.9015 5.79059L31.8926 5.93591C31.8324 5.93219 31.7582 5.94189 31.6699 5.96503L31.6329 5.82422M30.9056 6.14569C31.0426 6.06854 31.1699 6.00348 31.2869 5.95099L31.3466 6.0838C31.234 6.13428 31.1108 6.1972 30.9771 6.27258L30.9056 6.14569M30.5087 6.38519C30.5787 6.34045 30.6469 6.29803 30.713 6.25812L30.7883 6.38275C30.7233 6.42194 30.6562 6.46368 30.5872 6.50787L30.5087 6.38519M30.0656 6.68256C30.1432 6.6283 30.2189 6.57635 30.2927 6.52679L30.3739 6.64764C30.3009 6.69666 30.226 6.74805 30.149 6.80188L30.0656 6.68256M29.5785 7.03583C29.6632 6.97235 29.7462 6.91119 29.8274 6.85229L29.9138 6.96948L29.6649 7.15295L29.5785 7.03583M29.0497 7.44299C29.1411 7.37073 29.231 7.30066 29.3192 7.23279L29.4087 7.34753L29.1392 7.5578L29.0497 7.44299M28.5068 7.88098C28.5959 7.80768 28.6837 7.73602 28.7703 7.6662L28.8623 7.77899L28.5989 7.99384L28.5068 7.88098M28.1105 8.21155C28.1779 8.15466 28.2446 8.09869 28.3107 8.04358L28.4043 8.15509L28.2041 8.32312L28.1105 8.21155M27.6984 8.5636C27.7683 8.50317 27.8376 8.4436 27.9064 8.38495L28.0012 8.49536L27.7932 8.67407L27.6984 8.5636M27.2709 8.93658C27.3434 8.87268 27.4153 8.80969 27.4865 8.7475L27.5825 8.85693L27.3669 9.04602L27.2709 8.93658M26.829 9.32983C26.9038 9.26263 26.978 9.19623 27.0518 9.13068L27.1488 9.23926L26.926 9.43842L26.829 9.32983M26.3732 9.74292C26.4502 9.67249 26.5269 9.60278 26.6028 9.53394L26.7008 9.6416L26.4712 9.85059L26.3732 9.74292M25.9041 10.1752C25.9833 10.1016 26.062 10.0288 26.1403 9.95673L26.2391 10.0636L26.0029 10.2821L25.9041 10.1752M25.4222 10.6262C25.5035 10.5496 25.5844 10.4736 25.6647 10.3984L25.7644 10.5045L25.522 10.7323L25.4222 10.6262M24.9982 11.0287C25.0638 10.9659 25.1293 10.9037 25.1945 10.8419L25.2948 10.9473L25.0986 11.1342L24.9982 11.0287M24.6003 11.4106C24.6672 11.3461 24.7339 11.282 24.8002 11.2183L24.9011 11.3232L24.7014 11.5156L24.6003 11.4106M24.1958 11.8034C24.2638 11.7371 24.3314 11.6711 24.3989 11.6057L24.5005 11.71L24.2972 11.9077L24.1958 11.8034M23.7845 12.2066C23.8536 12.1385 23.9224 12.0709 23.991 12.0037L24.093 12.1075L23.8866 12.3104L23.7845 12.2066M23.3671 12.62C23.4373 12.5503 23.5071 12.481 23.5765 12.412L23.6792 12.5154L23.4697 12.7233L23.3671 12.62M22.9438 13.0434C23.0148 12.972 23.0856 12.9011 23.1561 12.8304L23.2593 12.9333L23.0469 13.1462L22.9438 13.0434M22.5149 13.4764C22.5868 13.4034 22.6586 13.3309 22.73 13.2587L22.8336 13.361L22.6184 13.5787L22.5149 13.4764M22.0807 13.9188C22.1534 13.8442 22.2261 13.7701 22.2985 13.6964L22.4025 13.7983L22.1847 14.0206L22.0807 13.9188M21.6416 14.3702C21.7151 14.2942 21.7886 14.2186 21.8617 14.1434L21.9662 14.2448L21.746 14.4716L21.6416 14.3702M21.3031 14.5109C21.3052 14.5787 21.3071 14.6465 21.3091 14.7146C21.3563 14.6655 21.4034 14.6166 21.4504 14.5679L21.4523 14.6302L21.525 14.7003L21.4141 14.8156L21.4139 14.8156L21.1736 15.0655L21.1636 14.7189L21.1636 14.7188L21.1591 14.5626L21.2562 14.5598L21.3031 14.5109M21.285 13.9384C21.2885 14.041 21.2917 14.144 21.295 14.2473L21.1495 14.252L21.1395 13.9431L21.285 13.9384M21.2635 13.3271C21.2672 13.4282 21.2709 13.5297 21.2745 13.6317L21.129 13.6369L21.118 13.3323L21.2635 13.3271M21.24 12.7248C21.2441 12.8244 21.248 12.9244 21.252 13.0248L21.1066 13.0306L21.0946 12.7306L21.24 12.7248M21.2146 12.1318C21.219 12.2299 21.2233 12.3283 21.2275 12.4271L21.0822 12.4335L21.0691 12.1382L21.2146 12.1318M21.1873 11.5486C21.192 11.645 21.1967 11.7418 21.2012 11.8389L21.0558 11.8459L21.0419 11.5555L21.1873 11.5486M21.1581 10.9753C21.1631 11.07 21.1681 11.1652 21.173 11.2607L21.0276 11.2682L21.0127 10.9829L21.1581 10.9753M21.1272 10.4125C21.1324 10.5054 21.1377 10.5988 21.1428 10.6926L20.9976 10.7008L20.9818 10.4207L21.1272 10.4125M21.0944 9.86053C21.1 9.9516 21.1056 10.0432 21.111 10.1351L20.9657 10.1439L20.9491 9.86926L21.0944 9.86053M21.0599 9.31958C21.0658 9.40881 21.0717 9.49847 21.0774 9.58862L20.9321 9.59808L20.9147 9.32904L21.0599 9.31958M21.0228 8.77844C21.0293 8.86957 21.0356 8.96124 21.042 9.05341L20.8967 9.06354L20.8777 8.78857L21.0228 8.77844M20.975 8.13013C20.9832 8.23657 20.9912 8.34381 20.9993 8.4519L20.8541 8.46283L20.8298 8.14105L20.975 8.13013M20.9244 7.50122C20.9331 7.60437 20.9417 7.70837 20.9501 7.81317L20.8049 7.82507L20.7794 7.51306L20.9244 7.50122M20.8716 6.8924C20.8806 6.99213 20.8895 7.09277 20.8983 7.19421L20.7533 7.20709L20.7266 6.90527L20.8716 6.8924M20.8162 6.30438C20.8256 6.40063 20.835 6.49774 20.8441 6.59576L20.6992 6.60968L20.6713 6.3183L20.8162 6.30438M20.7584 5.73792C20.7682 5.83051 20.778 5.92401 20.7876 6.01843L20.6428 6.03345L20.6136 5.75299L20.7584 5.73792M20.6985 5.19366C20.7086 5.28247 20.7188 5.37225 20.7288 5.46295L20.5841 5.47925L20.5538 5.20996L20.6985 5.19366M20.6362 4.67236C20.6469 4.75726 20.6572 4.8432 20.6676 4.93011L20.5231 4.94769L20.4917 4.68994L20.6362 4.67236M20.5719 4.17426C20.5828 4.25531 20.5936 4.3374 20.6044 4.42053L20.4601 4.43951L20.4276 4.1933L20.5719 4.17426M20.4718 3.47443C20.4888 3.58636 20.5057 3.70068 20.5223 3.81738L20.3784 3.83862L20.3278 3.49567L20.4718 3.47443M20.3672 2.83154C20.385 2.93384 20.4026 3.03857 20.42 3.14569L20.2765 3.1698L20.2236 2.85565L20.3672 2.83154M20.2587 2.24805C20.2771 2.34021 20.2953 2.435 20.3135 2.53223L20.1705 2.55981L20.1157 2.27563L20.2587 2.24805M20.1461 1.72632C20.1652 1.80798 20.1841 1.89233 20.2029 1.97931L20.0608 2.01117L20.0042 1.75818L20.1461 1.72632M20.03 1.26868C20.0497 1.33948 20.0692 1.41309 20.0885 1.48932L19.9474 1.52515C19.9283 1.44983 19.9091 1.37726 19.8898 1.30762L20.03 1.26868M19.8066 0.599365C19.8562 0.718689 19.905 0.85498 19.9531 1.00775L19.8142 1.05139C19.7672 0.9021 19.72 0.77002 19.6722 0.655212L19.8066 0.599365M19.5017 0.093811C19.5537 0.142151 19.6052 0.208862 19.6561 0.293396L19.5314 0.368469C19.4873 0.295227 19.4445 0.239258 19.4027 0.2005L19.5017 0.093811M32.1686 34.2253C32.1561 34.2521 32.1406 34.2758 32.1222 34.2963L32.0142 34.1987C32.0227 34.1892 32.0303 34.1776 32.0366 34.1639L32.1686 34.2253M32.0886 34.3274L31.9996 34.2122C32.0049 34.2082 32.0096 34.2037 32.0142 34.1988L32.1222 34.2963C32.1119 34.3077 32.1007 34.3181 32.0886 34.3274L32.0886 34.3274M6.50964 34.3273C6.49756 34.3181 6.48645 34.3077 6.4762 34.2963L6.58423 34.1987C6.58862 34.2037 6.59351 34.2081 6.59863 34.2122L6.50964 34.3273M6.42969 34.2253L6.56177 34.1639C6.56812 34.1776 6.57556 34.1892 6.58423 34.1987L6.4762 34.2963C6.45764 34.2758 6.44214 34.2521 6.42969 34.2253L6.42969 34.2253Z" fill="#232229" fill-opacity="1.000000" fill-rule="evenodd"/>
	<path id="Union" d="M22.9869 17.8635C30.6462 18.1338 36.2689 19.0283 36.2689 20.0901C36.2689 21.152 30.6462 22.0466 22.9869 22.3169C28.2303 28.508 31.6353 33.5452 30.9575 34.2961C30.2798 35.0469 25.7329 31.2748 20.1444 25.466C19.9004 33.9512 19.093 40.1804 18.1345 40.1804C17.176 40.1804 16.3685 33.9512 16.1245 25.4659C10.5361 31.2748 5.98926 35.0469 5.31152 34.2961C4.63367 33.5452 8.0387 28.508 13.282 22.3169C5.6228 22.0466 0 21.152 0 20.0901C0 19.0283 5.6228 18.1338 13.282 17.8635C8.0387 11.6724 4.63367 6.63513 5.3114 5.88428C5.98926 5.13342 10.5361 8.90558 16.1245 14.7144C16.3685 6.22913 17.176 0 18.1345 0C19.093 0 19.9004 6.22913 20.1444 14.7144C25.7329 8.90558 30.2798 5.13342 30.9575 5.88428C31.6353 6.63513 28.2303 11.6723 22.9869 17.8635L22.9869 17.8635Z" fill="#FE6A3A" fill-opacity="1.000000" fill-rule="nonzero"/>
</svg>
