<svg width="782.214355" height="344.551819" viewBox="0 0 782.214 344.552" fill="none" xmlns="http://www.w3.org/2000/svg" xmlns:xlink="http://www.w3.org/1999/xlink">
	<desc>
			Created with Pixso.
	</desc>
	<defs/>
	<path id="FABRIC THAT SPEAKS" d="M166.517 114.263L139.447 114.263L139.447 130.669L165.384 130.669L165.384 137.544L139.447 137.544L139.447 165.552L131.713 165.552L131.713 107.388L166.517 107.388L166.517 114.263ZM163.47 165.552L183.08 107.388L192.611 107.388L212.22 165.552L204.056 165.552L198.783 149.302L176.556 149.302L171.283 165.552L163.47 165.552M196.634 142.7L187.65 115.278L178.705 142.7L196.634 142.7ZM257.181 147.7C257.181 150.591 256.634 153.143 255.541 155.357C254.447 157.57 252.976 159.393 251.127 160.825C248.939 162.544 246.595 163.761 244.095 164.478C241.595 165.194 238.366 165.552 234.408 165.552L217.728 165.552L217.728 107.388L233.158 107.388C237.298 107.388 240.404 107.524 242.474 107.798C244.545 108.071 246.53 108.716 248.431 109.732C250.515 110.851 252.038 112.316 253.002 114.126C253.965 115.936 254.447 118.065 254.447 120.513C254.447 123.247 253.724 125.695 252.279 127.857C250.834 130.018 248.835 131.711 246.283 132.935L246.283 133.247C249.746 134.185 252.429 135.897 254.33 138.384C256.231 140.871 257.181 143.976 257.181 147.7M246.4 121.607C246.4 120.2 246.166 118.983 245.697 117.954C245.228 116.926 244.473 116.112 243.431 115.513C242.181 114.81 240.788 114.38 239.252 114.224C237.715 114.067 235.593 113.989 232.884 113.989L225.463 113.989L225.463 131.021L234.252 131.021C236.673 131.021 238.457 130.897 239.603 130.649C240.749 130.402 241.934 129.888 243.158 129.107C244.33 128.351 245.163 127.362 245.658 126.138C246.153 124.914 246.4 123.403 246.4 121.607M249.134 148.013C249.134 145.825 248.822 144.022 248.197 142.603C247.572 141.183 246.309 139.979 244.408 138.989C243.184 138.338 241.849 137.922 240.404 137.739C238.959 137.557 236.908 137.466 234.252 137.466L225.463 137.466L225.463 158.95L231.752 158.95C235.137 158.95 237.806 158.794 239.759 158.482C241.713 158.169 243.431 157.505 244.916 156.489C246.374 155.474 247.442 154.321 248.119 153.032C248.796 151.743 249.134 150.07 249.134 148.013ZM309.916 165.552L299.877 165.552L281.439 142.427L272.611 142.427L272.611 165.552L264.877 165.552L264.877 107.388L279.877 107.388C283.21 107.388 286.003 107.57 288.255 107.935C290.508 108.299 292.65 109.146 294.681 110.474C296.713 111.776 298.321 113.455 299.505 115.513C300.69 117.57 301.283 120.122 301.283 123.169C301.283 127.44 300.202 131.008 298.041 133.872C295.879 136.737 292.936 138.859 289.213 140.239L309.916 165.552M293.197 123.755C293.197 122.062 292.897 120.558 292.298 119.243C291.7 117.928 290.775 116.854 289.525 116.021C288.431 115.291 287.155 114.777 285.697 114.478C284.239 114.178 282.429 114.028 280.267 114.028L272.611 114.028L272.611 135.982L279.408 135.982C281.621 135.982 283.614 135.786 285.384 135.396C287.155 135.005 288.666 134.198 289.916 132.974C291.035 131.88 291.862 130.578 292.396 129.067C292.93 127.557 293.197 125.786 293.197 123.755ZM334.838 165.552L312.259 165.552L312.259 159.614L319.681 159.614L319.681 113.325L312.259 113.325L312.259 107.388L334.838 107.388L334.838 113.325L327.416 113.325L327.416 159.614L334.838 159.614L334.838 165.552ZM367.103 166.607C363.301 166.607 359.805 165.969 356.615 164.692C353.425 163.416 350.671 161.515 348.353 158.989C346.035 156.463 344.239 153.312 342.963 149.536C341.686 145.76 341.048 141.424 341.048 136.528C341.048 131.659 341.667 127.414 342.904 123.794C344.141 120.174 345.944 117.023 348.314 114.341C350.632 111.737 353.379 109.751 356.556 108.384C359.733 107.017 363.288 106.333 367.22 106.333C369.173 106.333 371.003 106.476 372.709 106.763C374.414 107.049 375.996 107.414 377.455 107.857C378.705 108.247 379.987 108.735 381.302 109.321C382.617 109.907 383.913 110.552 385.189 111.255L385.189 120.591L384.564 120.591C383.887 119.966 383.015 119.211 381.947 118.325C380.879 117.44 379.577 116.567 378.041 115.708C376.556 114.901 374.942 114.237 373.197 113.716C371.452 113.195 369.434 112.935 367.142 112.935C364.668 112.935 362.325 113.442 360.111 114.458C357.897 115.474 355.957 116.971 354.291 118.95C352.65 120.929 351.374 123.416 350.463 126.411C349.551 129.406 349.095 132.778 349.095 136.528C349.095 140.513 349.577 143.944 350.541 146.821C351.504 149.699 352.819 152.127 354.486 154.107C356.101 156.034 358.002 157.485 360.189 158.462C362.377 159.439 364.694 159.927 367.142 159.927C369.382 159.927 371.452 159.653 373.353 159.107C375.254 158.56 376.947 157.87 378.431 157.036C379.864 156.229 381.101 155.402 382.142 154.556C383.184 153.709 384.004 152.987 384.603 152.388L385.189 152.388L385.189 161.607C383.913 162.205 382.709 162.778 381.576 163.325C380.443 163.872 379.069 164.406 377.455 164.927C375.762 165.474 374.193 165.89 372.748 166.177C371.302 166.463 369.421 166.607 367.103 166.607ZM431.009 165.552L431.009 114.263L411.478 114.263L411.478 107.388L458.275 107.388L458.275 114.263L438.744 114.263L438.744 165.552L431.009 165.552ZM506.361 165.552L498.627 165.552L498.627 137.075L471.869 137.075L471.869 165.552L464.134 165.552L464.134 107.388L471.869 107.388L471.869 130.2L498.627 130.2L498.627 107.388L506.361 107.388L506.361 165.552ZM511.869 165.552L531.478 107.388L541.009 107.388L560.619 165.552L552.455 165.552L547.181 149.302L524.955 149.302L519.681 165.552L511.869 165.552M545.033 142.7L536.048 115.278L527.103 142.7L545.033 142.7ZM575.228 165.552L575.228 114.263L555.697 114.263L555.697 107.388L602.494 107.388L602.494 114.263L582.963 114.263L582.963 165.552L575.228 165.552ZM147.923 310.607C143.705 310.607 140.117 310.17 137.162 309.298C134.206 308.426 131.426 307.351 128.822 306.075L128.822 296.388L129.369 296.388C131.921 298.784 134.811 300.639 138.041 301.954C141.27 303.269 144.382 303.927 147.377 303.927C151.647 303.927 154.877 303.035 157.064 301.251C159.252 299.467 160.345 297.117 160.345 294.2C160.345 291.883 159.772 289.995 158.627 288.536C157.481 287.078 155.658 285.997 153.158 285.294C151.361 284.773 149.72 284.344 148.236 284.005C146.752 283.666 144.89 283.211 142.65 282.638C140.645 282.117 138.848 281.453 137.259 280.646C135.671 279.838 134.265 278.784 133.041 277.482C131.843 276.205 130.912 274.702 130.248 272.97C129.584 271.238 129.252 269.239 129.252 266.974C129.252 262.26 131.088 258.308 134.759 255.118C138.431 251.928 143.119 250.333 148.822 250.333C152.077 250.333 155.157 250.659 158.06 251.31C160.964 251.961 163.653 252.885 166.127 254.083L166.127 263.341L165.541 263.341C163.692 261.648 161.322 260.17 158.431 258.907C155.541 257.644 152.507 257.013 149.33 257.013C145.736 257.013 142.832 257.853 140.619 259.532C138.405 261.212 137.298 263.419 137.298 266.153C137.298 268.627 137.95 270.594 139.252 272.052C140.554 273.51 142.442 274.578 144.916 275.255C146.556 275.698 148.561 276.199 150.931 276.759C153.301 277.319 155.267 277.833 156.83 278.302C160.84 279.526 163.77 281.375 165.619 283.849C167.468 286.323 168.392 289.37 168.392 292.989C168.392 295.255 167.93 297.495 167.005 299.708C166.081 301.922 164.785 303.797 163.119 305.333C161.244 307.026 159.128 308.328 156.771 309.239C154.414 310.151 151.465 310.607 147.923 310.607ZM213.002 268.927C213.002 271.453 212.552 273.842 211.654 276.095C210.755 278.347 209.512 280.268 207.923 281.857C205.918 283.836 203.561 285.333 200.853 286.349C198.145 287.364 194.72 287.872 190.58 287.872L184.017 287.872L184.017 309.552L176.283 309.552L176.283 251.388L190.892 251.388C194.33 251.388 197.259 251.674 199.681 252.247C202.103 252.82 204.239 253.745 206.088 255.021C208.249 256.505 209.942 258.386 211.166 260.665C212.39 262.944 213.002 265.698 213.002 268.927M204.955 269.122C204.955 267.117 204.61 265.372 203.92 263.888C203.229 262.403 202.181 261.192 200.775 260.255C199.551 259.448 198.125 258.875 196.498 258.536C194.87 258.198 192.845 258.028 190.423 258.028L184.017 258.028L184.017 281.271L189.291 281.271C192.416 281.271 194.942 281.017 196.869 280.509C198.796 280.001 200.397 279.096 201.673 277.794C202.819 276.622 203.653 275.346 204.173 273.966C204.694 272.586 204.955 270.971 204.955 269.122ZM220.384 309.552L220.384 251.388L256.752 251.388L256.752 258.263L228.119 258.263L228.119 274.2L254.798 274.2L254.798 281.075L228.119 281.075L228.119 302.677L256.752 302.677L256.752 309.552L220.384 309.552ZM258.978 309.552L278.588 251.388L288.119 251.388L307.728 309.552L299.564 309.552L294.291 293.302L272.064 293.302L266.791 309.552L258.978 309.552M292.142 286.7L283.158 259.278L274.213 286.7L292.142 286.7ZM355.619 309.552L345.58 309.552L324.369 282.482L320.97 286.31L320.97 309.552L313.236 309.552L313.236 251.388L320.97 251.388L320.97 278.146L344.798 251.388L354.213 251.388L330.15 277.364L355.619 309.552ZM376.478 310.607C372.259 310.607 368.672 310.17 365.716 309.298C362.761 308.426 359.981 307.351 357.377 306.075L357.377 296.388L357.923 296.388C360.476 298.784 363.366 300.639 366.595 301.954C369.825 303.269 372.936 303.927 375.931 303.927C380.202 303.927 383.431 303.035 385.619 301.251C387.806 299.467 388.9 297.117 388.9 294.2C388.9 291.883 388.327 289.995 387.181 288.536C386.035 287.078 384.213 285.997 381.713 285.294C379.916 284.773 378.275 284.344 376.791 284.005C375.306 283.666 373.444 283.211 371.205 282.638C369.2 282.117 367.403 281.453 365.814 280.646C364.226 279.838 362.819 278.784 361.595 277.482C360.397 276.205 359.466 274.702 358.802 272.97C358.138 271.238 357.806 269.239 357.806 266.974C357.806 262.26 359.642 258.308 363.314 255.118C366.986 251.928 371.673 250.333 377.377 250.333C380.632 250.333 383.711 250.659 386.615 251.31C389.519 251.961 392.207 252.885 394.681 254.083L394.681 263.341L394.095 263.341C392.246 261.648 389.877 260.17 386.986 258.907C384.095 257.644 381.061 257.013 377.884 257.013C374.291 257.013 371.387 257.853 369.173 259.532C366.96 261.212 365.853 263.419 365.853 266.153C365.853 268.627 366.504 270.594 367.806 272.052C369.108 273.51 370.996 274.578 373.47 275.255C375.111 275.698 377.116 276.199 379.486 276.759C381.856 277.319 383.822 277.833 385.384 278.302C389.395 279.526 392.324 281.375 394.173 283.849C396.022 286.323 396.947 289.37 396.947 292.989C396.947 295.255 396.485 297.495 395.56 299.708C394.636 301.922 393.34 303.797 391.673 305.333C389.798 307.026 387.683 308.328 385.326 309.239C382.969 310.151 380.02 310.607 376.478 310.607Z" fill="#232229" fill-opacity="1.000000" fill-rule="evenodd"/>
	<path id="Vector 13" d="M125.814 188.552L662.814 188.552" stroke="#232229" stroke-opacity="1.000000" stroke-width="1.000000"/>
	<path id="Vector 12" d="M125.814 58.0518L662.814 58.0518" stroke="#232229" stroke-opacity="1.000000" stroke-width="1.000000"/>
	<path id="Vector 14" d="M125.814 344.052L471.565 344.052" stroke="#232229" stroke-opacity="1.000000" stroke-width="1.000000"/>
	<path id="Path 81" d="M133.881 222.507L133.908 222.515C134.31 223.252 134.047 224.148 133.31 224.55C132.572 224.952 131.677 224.689 131.275 223.951L131.283 223.924L133.881 222.507ZM124.071 210.704L124.044 210.696C123.641 209.959 123.905 209.063 124.642 208.661C125.379 208.259 126.275 208.522 126.677 209.259L126.669 209.286L124.071 210.704Z" fill="#D8D8D8" fill-opacity="0" fill-rule="nonzero"/>
	<path id="Path 81" d="M132.591 223.233L125.36 209.978" stroke="#FE6A3A" stroke-opacity="1.000000" stroke-width="3.000000" stroke-linecap="round"/>
	<path id="Path 82" d="M118.954 239.246L118.977 239.23C119.807 239.361 120.356 240.115 120.225 240.945C120.094 241.775 119.339 242.324 118.509 242.193L118.493 242.17L118.954 239.246ZM103.603 239.821L103.58 239.837C102.751 239.706 102.201 238.952 102.332 238.122C102.463 237.292 103.218 236.743 104.048 236.874L104.064 236.897L103.603 239.821Z" fill="#D8D8D8" fill-opacity="0" fill-rule="nonzero"/>
	<path id="Path 82" d="M118.743 240.711L103.814 238.356" stroke="#FE6A3A" stroke-opacity="1.000000" stroke-width="3.000000" stroke-linecap="round"/>
	<path id="Path 82 Copy" d="M126.655 231.051L126.683 231.047C127.353 231.554 127.481 232.479 126.974 233.149C126.468 233.819 125.543 233.947 124.873 233.44L124.869 233.412L126.655 231.051ZM106.913 219.834L106.885 219.838C106.215 219.331 106.087 218.407 106.593 217.737C107.1 217.067 108.024 216.938 108.694 217.445L108.698 217.473L106.913 219.834Z" fill="#D8D8D8" fill-opacity="0" fill-rule="nonzero"/>
	<path id="Path 82 Copy" d="M125.778 232.244L107.79 218.641" stroke="#FE6A3A" stroke-opacity="1.000000" stroke-width="3.000000" stroke-linecap="round"/>
	<path id="Vector 17" d="M0.814087 78.9992C18.0704 86.6892 54.4848 99.0601 62.0917 87.0235C71.6003 71.9778 15.6052 44.394 34.6224 32.3574C53.6396 20.3208 145.556 -2.24778 215.814 2.76746" stroke="#FBC800" stroke-opacity="1.000000" stroke-width="4.000000"/>
	<path id="Star 1" d="M719.942 222.236L715.525 226.03C714.018 227.324 711.986 227.825 710.051 227.379L704.376 226.073C701.367 225.38 698.304 226.988 697.165 229.857L695.017 235.27C694.284 237.115 692.717 238.503 690.797 239.008L685.165 240.488C682.179 241.273 680.214 244.121 680.539 247.191L681.152 252.981C681.361 254.956 680.618 256.913 679.152 258.253L674.854 262.181C672.575 264.263 672.158 267.698 673.872 270.265L677.106 275.108C678.209 276.76 678.461 278.837 677.785 280.705L675.804 286.18C674.754 289.083 675.981 292.318 678.692 293.795L683.806 296.58C685.55 297.53 686.739 299.252 687.009 301.22L687.8 306.989C688.219 310.048 690.808 312.342 693.895 312.389L699.718 312.479C701.703 312.51 703.556 313.482 704.71 315.099L708.091 319.84C709.884 322.353 713.243 323.181 715.998 321.789L721.195 319.162C722.968 318.267 725.06 318.267 726.833 319.162L732.03 321.789C734.785 323.181 738.145 322.353 739.937 319.84L743.318 315.099C744.472 313.482 746.325 312.51 748.31 312.479L754.133 312.389C757.22 312.342 759.809 310.048 760.229 306.989L761.019 301.22C761.289 299.252 762.478 297.53 764.222 296.58L769.336 293.795C772.047 292.318 773.274 289.083 772.224 286.18L770.243 280.705C769.567 278.837 769.819 276.76 770.922 275.108L774.156 270.265C775.87 267.698 775.453 264.263 773.174 262.181L768.876 258.253C767.41 256.913 766.668 254.956 766.877 252.981L767.489 247.191C767.814 244.121 765.849 241.273 762.863 240.488L757.231 239.008C755.311 238.503 753.744 237.115 753.011 235.27L750.863 229.857C749.724 226.988 746.661 225.38 743.652 226.073L737.977 227.379C736.042 227.825 734.01 227.324 732.503 226.03L728.086 222.236C725.744 220.225 722.284 220.225 719.942 222.236Z" fill="#FBC800" fill-opacity="1.000000" fill-rule="evenodd"/>
	<path id="New Edition" d="M716.107 255.696L713.237 255.696L713.237 264.274L713.113 264.274L707.231 255.696L704.7 255.696L704.7 269.332L707.584 269.332L707.584 260.75L707.684 260.75L713.617 269.332L716.107 269.332L716.107 255.696ZM723.087 269.534C725.618 269.534 727.326 268.302 727.724 266.403L725.101 266.229C724.813 267.007 724.08 267.414 723.137 267.414C721.718 267.414 720.817 266.476 720.817 264.952L720.817 264.942L727.783 264.942L727.783 264.164C727.783 260.69 725.678 258.973 722.977 258.973C719.965 258.973 718.015 261.111 718.015 264.265C718.015 267.506 719.938 269.534 723.087 269.534ZM720.817 263.185C720.881 262.022 721.764 261.088 723.023 261.088C724.254 261.088 725.106 261.967 725.115 263.185L720.817 263.185ZM731.571 269.332L734.57 269.332L736.327 262.901L736.451 262.901L738.209 269.332L741.211 269.332L743.99 259.106L741.124 259.106L739.568 265.936L739.481 265.936L737.801 259.106L734.986 259.106L733.334 265.977L733.242 265.977L731.658 259.106L728.788 259.106L731.571 269.332ZM693.102 290.332L702.316 290.332L702.316 287.956L695.985 287.956L695.985 284.697L701.817 284.697L701.817 282.322L695.985 282.322L695.985 279.072L702.289 279.072L702.289 276.696L693.102 276.696L693.102 290.332ZM708.304 290.497C709.952 290.497 710.812 289.545 711.206 288.693L711.325 288.693L711.325 290.332L714.122 290.332L714.122 276.696L711.293 276.696L711.293 281.823L711.206 281.823C710.826 280.99 710.006 279.973 708.294 279.973C706.052 279.973 704.152 281.717 704.152 285.233C704.152 288.652 705.969 290.497 708.304 290.497ZM709.201 288.24C707.809 288.24 707.049 287.004 707.049 285.219C707.049 283.448 707.796 282.23 709.201 282.23C710.579 282.23 711.352 283.393 711.352 285.219C711.352 287.041 710.565 288.24 709.201 288.24ZM716.443 290.332L719.281 290.332L719.281 280.106L716.443 280.106L716.443 290.332ZM717.871 278.788C718.714 278.788 719.409 278.143 719.409 277.351C719.409 276.563 718.714 275.918 717.871 275.918C717.029 275.918 716.338 276.563 716.338 277.351C716.338 278.143 717.029 278.788 717.871 278.788ZM726.986 280.106L725.059 280.106L725.059 277.657L722.225 277.657L722.225 280.106L720.825 280.106L720.825 282.235L722.225 282.235L722.225 287.563C722.211 289.568 723.576 290.556 725.631 290.474C726.363 290.447 726.885 290.3 727.169 290.204L726.725 288.094C726.583 288.121 726.285 288.19 726.02 288.19C725.452 288.19 725.059 287.975 725.059 287.187L725.059 282.235L726.986 282.235L726.986 280.106ZM728.827 290.332L731.665 290.332L731.665 280.106L728.827 280.106L728.827 290.332ZM730.255 278.788C731.097 278.788 731.793 278.143 731.793 277.351C731.793 276.563 731.097 275.918 730.255 275.918C729.413 275.918 728.722 276.563 728.722 277.351C728.722 278.143 729.413 278.788 730.255 278.788ZM738.55 290.534C741.654 290.534 743.581 288.41 743.581 285.26C743.581 282.088 741.654 279.973 738.55 279.973C735.447 279.973 733.515 282.088 733.515 285.26C733.515 288.41 735.447 290.534 738.55 290.534ZM738.564 288.336C737.131 288.336 736.399 287.023 736.399 285.237C736.399 283.452 737.131 282.134 738.564 282.134C739.969 282.134 740.702 283.452 740.702 285.237C740.702 287.023 739.969 288.336 738.564 288.336ZM748.27 284.418C748.275 283.1 749.062 282.331 750.206 282.331C751.346 282.331 752.033 283.077 752.024 284.327L752.024 290.332L754.862 290.332L754.862 283.818C754.862 281.438 753.461 279.973 751.332 279.973C749.813 279.973 748.714 280.72 748.256 281.91L748.137 281.91L748.137 280.106L745.432 280.106L745.432 290.332L748.27 290.332L748.27 284.418Z" fill="#232229" fill-opacity="1.000000" fill-rule="evenodd"/>
	<path id="Star 1" d="M719.942 217.549L714.571 222.162C713.065 223.456 711.033 223.956 709.097 223.511L702.198 221.922C699.189 221.23 696.126 222.838 694.987 225.707L692.375 232.288C691.642 234.133 690.076 235.521 688.155 236.026L681.307 237.826C678.322 238.611 676.356 241.458 676.681 244.528L677.426 251.569C677.635 253.544 676.893 255.5 675.427 256.84L670.201 261.616C667.922 263.699 667.505 267.133 669.219 269.7L673.151 275.588C674.254 277.24 674.506 279.317 673.83 281.185L671.422 287.843C670.372 290.746 671.599 293.981 674.31 295.457L680.527 298.844C682.271 299.793 683.46 301.516 683.73 303.483L684.692 310.498C685.111 313.556 687.7 315.85 690.787 315.898L697.866 316.007C699.852 316.038 701.705 317.01 702.858 318.627L706.969 324.391C708.762 326.904 712.121 327.732 714.876 326.34L721.195 323.147C722.968 322.251 725.061 322.251 726.833 323.147L733.152 326.34C735.907 327.732 739.266 326.904 741.059 324.391L745.17 318.627C746.323 317.01 748.176 316.038 750.162 316.007L757.241 315.898C760.328 315.85 762.918 313.556 763.337 310.498L764.298 303.483C764.568 301.516 765.757 299.793 767.501 298.844L773.719 295.457C776.43 293.981 777.657 290.746 776.606 287.843L774.198 281.185C773.522 279.317 773.775 277.24 774.878 275.588L778.809 269.7C780.524 267.133 780.107 263.699 777.828 261.616L772.601 256.84C771.135 255.5 770.393 253.544 770.602 251.569L771.347 244.528C771.672 241.458 769.707 238.611 766.721 237.826L759.874 236.026C757.953 235.521 756.386 234.133 755.654 232.288L753.041 225.707C751.902 222.838 748.839 221.23 745.831 221.922L738.931 223.511C736.996 223.956 734.964 223.456 733.457 222.162L728.086 217.549C725.744 215.537 722.284 215.537 719.942 217.549Z" fill="#FBC800" fill-opacity="0" fill-rule="evenodd"/>
	<path id="Star 1" d="M724.894 216.497Q725.072 216.524 725.249 216.562L725.331 216.18C725.042 216.118 724.749 216.077 724.455 216.056L724.428 216.445Q724.662 216.462 724.894 216.497ZM722.697 216.18C722.986 216.118 723.279 216.077 723.573 216.056L723.6 216.445Q723.367 216.462 723.135 216.497Q722.957 216.524 722.779 216.562L722.697 216.18ZM721.047 216.789C721.306 216.649 721.572 216.529 721.844 216.428L721.979 216.795Q721.783 216.867 721.592 216.954Q721.41 217.037 721.233 217.132L721.047 216.789ZM719.607 217.837L719.942 217.549C720.058 217.45 720.176 217.355 720.297 217.266L720.529 217.58Q720.359 217.706 720.197 217.845L719.861 218.133L719.607 217.837ZM718.264 218.99L718.935 218.414L719.19 218.71L718.518 219.287L718.264 218.99ZM716.921 220.143L717.593 219.567L717.847 219.863L717.176 220.44L716.921 220.143ZM715.578 221.297L716.25 220.72L716.504 221.016L715.833 221.593L715.578 221.297ZM714.184 222.468C714.317 222.372 714.446 222.269 714.571 222.162L714.907 221.873L715.161 222.17L714.826 222.458Q714.695 222.57 714.559 222.675Q714.488 222.731 714.414 222.784L714.184 222.468ZM712.459 223.355C712.766 223.254 713.064 223.129 713.353 222.981L713.531 223.328Q713.309 223.442 713.08 223.539Q712.835 223.642 712.582 223.726L712.459 223.355ZM710.557 223.67C710.881 223.667 711.204 223.639 711.522 223.586L711.586 223.971Q711.322 224.015 711.056 224.037Q710.809 224.058 710.561 224.061L710.557 223.67ZM708.666 223.412L709.097 223.511C709.259 223.548 709.421 223.578 709.583 223.603L709.526 223.989Q709.44 223.976 709.354 223.961Q709.181 223.931 709.01 223.891L708.578 223.792L708.666 223.412ZM706.941 223.014L707.804 223.213L707.716 223.594L706.854 223.395L706.941 223.014ZM705.216 222.617L706.079 222.816L705.991 223.197L705.129 222.998L705.216 222.617ZM703.491 222.22L704.354 222.419L704.266 222.799L703.404 222.601L703.491 222.22ZM701.756 221.837C701.904 221.86 702.051 221.889 702.198 221.922L702.629 222.022L702.541 222.402L702.11 222.303Q701.904 222.256 701.696 222.223L701.756 221.837ZM700.011 221.812C700.296 221.776 700.585 221.759 700.877 221.763L700.871 222.153Q700.672 222.151 700.473 222.162Q700.266 222.173 700.06 222.199L700.011 221.812ZM698.318 222.275C698.586 222.159 698.863 222.062 699.146 221.984L699.249 222.361Q699.077 222.408 698.908 222.466Q698.687 222.541 698.473 222.634L698.318 222.275ZM696.824 223.187C697.051 223 697.29 222.83 697.54 222.678L697.743 223.012Q697.546 223.132 697.358 223.268Q697.212 223.374 697.072 223.488L696.824 223.187ZM695.629 224.496C695.798 224.247 695.983 224.013 696.183 223.795L696.471 224.058Q696.326 224.218 696.192 224.387Q696.066 224.547 695.952 224.715L695.629 224.496ZM694.824 226.118L694.987 225.707C695.044 225.562 695.107 225.421 695.174 225.283L695.525 225.453Q695.43 225.649 695.35 225.851L695.187 226.262L694.824 226.118ZM694.171 227.763L694.497 226.941L694.86 227.085L694.534 227.908L694.171 227.763ZM693.518 229.409L693.844 228.586L694.207 228.73L693.881 229.553L693.518 229.409ZM692.865 231.054L693.191 230.231L693.554 230.375L693.228 231.198L692.865 231.054ZM692.174 232.739C692.247 232.592 692.314 232.441 692.375 232.288L692.538 231.876L692.901 232.02L692.738 232.432Q692.676 232.587 692.607 232.74Q692.567 232.826 692.525 232.911L692.174 232.739ZM691.059 234.326C691.283 234.094 691.49 233.844 691.676 233.579L691.996 233.804Q691.853 234.008 691.695 234.199Q691.526 234.405 691.34 234.597L691.059 234.326ZM689.521 235.488C689.807 235.335 690.08 235.16 690.337 234.966L690.572 235.277Q690.359 235.438 690.135 235.581Q689.926 235.715 689.706 235.833L689.521 235.488ZM687.727 236.139L688.155 236.026C688.315 235.984 688.473 235.936 688.627 235.882L688.756 236.25Q688.665 236.282 688.573 236.312Q688.415 236.362 688.254 236.404L687.826 236.516L687.727 236.139ZM686.015 236.589L686.871 236.364L686.97 236.741L686.114 236.966L686.015 236.589ZM684.303 237.038L685.159 236.813L685.258 237.191L684.402 237.416L684.303 237.038ZM682.591 237.488L683.447 237.263L683.547 237.641L682.691 237.866L682.591 237.488ZM680.864 237.96C681.009 237.91 681.157 237.866 681.307 237.826L681.735 237.713L681.835 238.091L681.407 238.204Q681.196 238.259 680.991 238.33L680.864 237.96ZM679.265 238.783C679.506 238.611 679.761 238.455 680.027 238.317L680.207 238.664Q680.026 238.758 679.852 238.863Q679.668 238.975 679.492 239.101L679.265 238.783ZM677.993 239.995C678.174 239.766 678.372 239.549 678.584 239.346L678.854 239.629Q678.722 239.754 678.599 239.887Q678.443 240.056 678.299 240.237L677.993 239.995ZM677.111 241.506C677.222 241.234 677.352 240.971 677.499 240.719L677.836 240.916Q677.718 241.118 677.617 241.329Q677.54 241.489 677.472 241.654L677.111 241.506ZM676.682 243.197C676.713 242.907 676.765 242.622 676.835 242.343L677.214 242.439Q677.163 242.64 677.127 242.844Q677.092 243.04 677.071 243.239L676.682 243.197ZM676.728 244.968L676.681 244.528C676.665 244.378 676.655 244.228 676.65 244.08L677.04 244.066Q677.047 244.277 677.07 244.487L677.116 244.927L676.728 244.968ZM676.914 246.728L676.821 245.848L677.209 245.807L677.303 246.687L676.914 246.728ZM677.1 248.488L677.007 247.608L677.396 247.567L677.489 248.447L677.1 248.488ZM677.287 250.249L677.194 249.369L677.582 249.327L677.675 250.208L677.287 250.249ZM677.459 252.062C677.455 251.898 677.444 251.733 677.426 251.569L677.38 251.129L677.768 251.088L677.815 251.528Q677.833 251.696 677.842 251.866Q677.847 251.958 677.849 252.051L677.459 252.062ZM677.209 253.985C677.299 253.675 677.366 253.359 677.408 253.037L677.796 253.088Q677.763 253.335 677.713 253.579Q677.659 253.839 677.584 254.095L677.209 253.985ZM676.388 255.729C676.569 255.461 676.729 255.179 676.866 254.887L677.22 255.054Q677.106 255.295 676.974 255.526Q676.851 255.742 676.711 255.948L676.388 255.729ZM675.101 257.139L675.427 256.84C675.549 256.728 675.667 256.613 675.779 256.493L676.064 256.759Q676 256.828 675.935 256.894Q675.816 257.014 675.691 257.128L675.364 257.427L675.101 257.139ZM673.794 258.333L674.447 257.736L674.711 258.024L674.057 258.621L673.794 258.333ZM672.487 259.527L673.141 258.93L673.404 259.218L672.751 259.815L672.487 259.527ZM671.181 260.721L671.834 260.124L672.098 260.412L671.444 261.009L671.181 260.721ZM669.87 261.941C669.976 261.829 670.086 261.721 670.201 261.616L670.527 261.318L670.791 261.606L670.464 261.904Q670.303 262.051 670.154 262.209L669.87 261.941ZM668.837 263.413C668.97 263.148 669.123 262.892 669.296 262.646L669.615 262.87Q669.498 263.037 669.393 263.212Q669.283 263.396 669.186 263.588L668.837 263.413ZM668.274 265.077C668.328 264.79 668.402 264.506 668.496 264.228L668.866 264.353Q668.808 264.524 668.761 264.699Q668.701 264.922 668.658 265.149L668.274 265.077ZM668.195 266.825C668.167 266.533 668.16 266.24 668.173 265.948L668.563 265.965Q668.553 266.198 668.561 266.43Q668.567 266.609 668.584 266.788L668.195 266.825ZM668.601 268.522C668.494 268.25 668.407 267.974 668.34 267.694L668.72 267.603Q668.768 267.805 668.831 268.002Q668.891 268.192 668.965 268.378L668.601 268.522ZM669.465 270.068L669.219 269.7C669.135 269.575 669.057 269.447 668.983 269.318L669.322 269.125Q669.427 269.308 669.544 269.483L669.79 269.851L669.465 270.068ZM670.448 271.54L669.956 270.804L670.281 270.587L670.773 271.323L670.448 271.54ZM671.431 273.012L670.939 272.276L671.264 272.059L671.756 272.795L671.431 273.012ZM672.414 274.484L671.922 273.748L672.247 273.531L672.739 274.267L672.414 274.484ZM673.409 276.01C673.329 275.867 673.243 275.726 673.151 275.588L672.905 275.22L673.23 275.003L673.476 275.371Q673.57 275.513 673.657 275.659Q673.705 275.738 673.75 275.819L673.409 276.01ZM674.081 277.829C674.017 277.513 673.929 277.201 673.817 276.897L674.184 276.762Q674.27 276.995 674.338 277.233Q674.411 277.49 674.464 277.752L674.081 277.829ZM674.164 279.755C674.2 279.433 674.211 279.109 674.197 278.787L674.587 278.77Q674.599 279.037 674.589 279.303Q674.58 279.551 674.552 279.798L674.164 279.755ZM673.68 281.601L673.83 281.185C673.887 281.029 673.937 280.872 673.98 280.714L674.357 280.818Q674.33 280.913 674.301 281.008Q674.253 281.164 674.198 281.318L674.047 281.734L673.68 281.601ZM673.078 283.266L673.379 282.433L673.746 282.566L673.445 283.398L673.078 283.266ZM672.476 284.93L672.777 284.098L673.144 284.231L672.843 285.063L672.476 284.93ZM671.874 286.594L672.175 285.762L672.542 285.895L672.241 286.727L671.874 286.594ZM671.284 288.271C671.325 288.127 671.371 287.985 671.422 287.843L671.573 287.427L671.94 287.56L671.789 287.976Q671.717 288.174 671.66 288.377L671.284 288.271ZM671.048 290.001C671.047 289.713 671.065 289.424 671.104 289.135L671.491 289.187Q671.465 289.385 671.452 289.583Q671.438 289.79 671.439 289.999L671.048 290.001ZM671.304 291.737C671.222 291.456 671.158 291.17 671.116 290.88L671.502 290.823Q671.528 290.999 671.565 291.174Q671.613 291.402 671.679 291.626L671.304 291.737ZM672.029 293.33C671.872 293.082 671.732 292.824 671.611 292.558L671.966 292.396Q672.061 292.605 672.172 292.805Q672.26 292.965 672.359 293.12L672.029 293.33ZM673.185 294.674C672.958 294.476 672.748 294.264 672.556 294.039L672.852 293.785Q672.992 293.948 673.143 294.1Q673.287 294.245 673.442 294.38L673.185 294.674ZM674.698 295.669L674.31 295.457C674.173 295.383 674.04 295.304 673.911 295.221L674.123 294.892Q674.305 295.01 674.497 295.114L674.885 295.326L674.698 295.669ZM676.253 296.515L675.476 296.092L675.662 295.749L676.44 296.172L676.253 296.515ZM677.807 297.362L677.03 296.939L677.217 296.596L677.994 297.019L677.807 297.362ZM679.362 298.209L678.584 297.785L678.771 297.442L679.548 297.866L679.362 298.209ZM680.952 299.097C680.814 299.007 680.673 298.923 680.527 298.844L680.139 298.632L680.326 298.289L680.714 298.501Q680.873 298.587 681.027 298.682Q681.096 298.725 681.165 298.77L680.952 299.097ZM682.392 300.395C682.189 300.145 681.966 299.91 681.726 299.693L681.987 299.403Q682.172 299.569 682.343 299.748Q682.527 299.941 682.695 300.149L682.392 300.395ZM683.361 302.062C683.243 301.76 683.103 301.468 682.941 301.19L683.278 300.993Q683.413 301.225 683.528 301.466Q683.635 301.689 683.725 301.92L683.361 302.062ZM683.79 303.922L683.73 303.483C683.708 303.319 683.679 303.157 683.644 302.997L684.025 302.913Q684.047 303.014 684.066 303.115Q684.095 303.272 684.117 303.43L684.177 303.869L683.79 303.922ZM684.031 305.675L683.91 304.798L684.297 304.745L684.417 305.622L684.031 305.675ZM684.271 307.429L684.151 306.552L684.538 306.499L684.658 307.376L684.271 307.429ZM684.511 309.183L684.391 308.306L684.778 308.253L684.898 309.13L684.511 309.183ZM684.77 310.951C684.739 310.802 684.712 310.651 684.692 310.498L684.631 310.059L685.018 310.006L685.078 310.445Q685.108 310.659 685.153 310.87L684.77 310.951ZM685.387 312.625C685.247 312.367 685.124 312.097 685.021 311.818L685.387 311.682Q685.458 311.872 685.541 312.057Q685.628 312.251 685.73 312.439L685.387 312.625ZM686.423 314.027C686.22 313.82 686.031 313.599 685.858 313.365L686.172 313.132Q686.278 313.276 686.393 313.413Q686.541 313.589 686.702 313.754L686.423 314.027ZM687.8 315.086C687.547 314.942 687.305 314.781 687.074 314.604L687.313 314.294Q687.495 314.435 687.687 314.56Q687.837 314.658 687.993 314.746L687.8 315.086ZM689.437 315.73C689.147 315.661 688.865 315.572 688.591 315.464L688.735 315.101Q688.938 315.181 689.146 315.246Q689.335 315.304 689.527 315.35L689.437 315.73ZM691.23 315.905L690.787 315.898C690.633 315.896 690.48 315.888 690.328 315.874L690.362 315.485Q690.373 315.486 690.383 315.487Q690.587 315.504 690.793 315.507L691.236 315.514L691.23 315.905ZM692.999 315.932L692.115 315.918L692.12 315.528L693.005 315.541L692.999 315.932ZM694.769 315.959L693.884 315.946L693.89 315.555L694.775 315.569L694.769 315.959ZM696.539 315.987L695.654 315.973L695.66 315.582L696.545 315.596L696.539 315.987ZM698.36 316.034C698.196 316.019 698.032 316.009 697.866 316.007L697.424 316L697.43 315.61L697.872 315.616Q698.062 315.619 698.252 315.633Q698.324 315.638 698.396 315.645L698.36 316.034ZM700.238 316.514C699.942 316.387 699.636 316.282 699.322 316.202L699.419 315.823Q699.654 315.884 699.883 315.96Q700.141 316.047 700.393 316.155L700.238 316.514ZM701.871 317.54C701.626 317.327 701.366 317.134 701.093 316.963L701.301 316.632Q701.529 316.776 701.745 316.936Q701.941 317.083 702.127 317.245L701.871 317.54ZM703.115 318.987L702.858 318.627C702.762 318.492 702.661 318.362 702.556 318.236L702.855 317.985Q702.906 318.045 702.955 318.107Q703.069 318.25 703.176 318.4L703.433 318.76L703.115 318.987ZM704.143 320.428L703.629 319.708L703.947 319.481L704.461 320.201L704.143 320.428ZM705.171 321.869L704.657 321.149L704.975 320.922L705.489 321.642L705.171 321.869ZM706.199 323.31L705.685 322.59L706.003 322.363L706.517 323.084L706.199 323.31ZM707.252 324.758C707.154 324.64 707.06 324.518 706.969 324.391L706.712 324.031L707.03 323.804L707.287 324.164Q707.414 324.342 707.553 324.509L707.252 324.758ZM708.588 325.962C708.342 325.797 708.106 325.614 707.882 325.414L708.143 325.123Q708.297 325.261 708.459 325.387Q708.627 325.518 708.805 325.637L708.588 325.962ZM710.173 326.721C709.894 326.633 709.621 326.525 709.356 326.398L709.525 326.046Q709.684 326.122 709.846 326.188Q710.065 326.277 710.291 326.349L710.173 326.721ZM711.898 327.01C711.605 327.003 711.313 326.974 711.025 326.926L711.09 326.541Q711.321 326.58 711.555 326.6Q711.731 326.615 711.909 326.62L711.898 327.01ZM713.632 326.811C713.35 326.885 713.065 326.938 712.779 326.971L712.734 326.583Q712.94 326.559 713.142 326.521Q713.339 326.484 713.533 326.433L713.632 326.811ZM715.271 326.14L714.876 326.34C714.742 326.408 714.606 326.471 714.468 326.528L714.317 326.168Q714.512 326.087 714.7 325.991L715.095 325.792L715.271 326.14ZM716.851 325.342L716.061 325.741L715.885 325.393L716.675 324.993L716.851 325.342ZM718.431 324.544L717.641 324.943L717.465 324.594L718.255 324.195L718.431 324.544ZM720.011 323.745L719.221 324.145L719.045 323.796L719.834 323.397L720.011 323.745ZM721.645 322.941C721.493 323.004 721.343 323.072 721.195 323.147L720.8 323.346L720.624 322.998L721.019 322.798Q721.185 322.714 721.356 322.64Q721.426 322.609 721.497 322.58L721.645 322.941ZM723.531 322.493C723.21 322.518 722.89 322.568 722.575 322.643L722.485 322.263Q722.73 322.205 722.977 322.166Q723.238 322.124 723.501 322.104L723.531 322.493ZM725.454 322.643C725.138 322.568 724.818 322.518 724.497 322.493L724.527 322.104Q724.79 322.124 725.049 322.165Q725.298 322.205 725.544 322.263L725.454 322.643ZM727.228 323.346L726.833 323.147C726.685 323.072 726.535 323.004 726.384 322.941L726.532 322.58Q726.595 322.606 726.658 322.633Q726.836 322.71 727.009 322.798L727.404 322.998L727.228 323.346ZM728.808 324.145L728.018 323.745L728.194 323.397L728.984 323.796L728.808 324.145ZM730.388 324.943L729.598 324.544L729.774 324.195L730.564 324.594L730.388 324.943ZM731.967 325.741L731.177 325.342L731.354 324.993L732.143 325.393L731.967 325.741ZM733.56 326.528C733.423 326.471 733.287 326.408 733.152 326.34L732.757 326.14L732.933 325.792L733.328 325.991Q733.517 326.087 733.711 326.168L733.56 326.528ZM735.249 326.971C734.964 326.938 734.679 326.885 734.397 326.811L734.495 326.433Q734.696 326.485 734.899 326.523Q735.095 326.56 735.294 326.583L735.249 326.971ZM737.003 326.926C736.715 326.974 736.423 327.003 736.13 327.01L736.12 326.62Q736.304 326.615 736.487 326.599Q736.714 326.579 736.939 326.541L737.003 326.926ZM738.672 326.398C738.407 326.525 738.134 326.633 737.855 326.721L737.738 326.349Q737.952 326.281 738.161 326.197Q738.334 326.127 738.503 326.046L738.672 326.398ZM740.146 325.414C739.923 325.614 739.687 325.797 739.44 325.962L739.223 325.637Q739.402 325.518 739.57 325.386Q739.732 325.26 739.885 325.123L740.146 325.414ZM741.316 324.031L741.059 324.391C740.969 324.518 740.874 324.64 740.776 324.758L740.476 324.509Q740.615 324.342 740.741 324.164L740.998 323.804L741.316 324.031ZM742.344 322.59L741.83 323.31L741.512 323.083L742.026 322.363L742.344 322.59ZM743.372 321.149L742.858 321.869L742.54 321.642L743.054 320.922L743.372 321.149ZM744.399 319.708L743.885 320.428L743.567 320.201L744.081 319.481L744.399 319.708ZM745.473 318.236C745.367 318.362 745.266 318.492 745.17 318.627L744.913 318.987L744.595 318.76L744.852 318.4Q744.956 318.255 745.067 318.116Q745.119 318.05 745.174 317.985L745.473 318.236ZM746.935 316.963C746.662 317.134 746.402 317.327 746.157 317.54L745.901 317.245Q746.088 317.083 746.286 316.935Q746.5 316.775 746.727 316.632L746.935 316.963ZM748.707 316.202C748.393 316.282 748.086 316.387 747.79 316.514L747.636 316.155Q747.883 316.049 748.136 315.964Q748.37 315.885 748.61 315.823L748.707 316.202ZM750.605 316L750.162 316.007C749.997 316.009 749.832 316.019 749.669 316.034L749.632 315.645Q749.705 315.638 749.779 315.633Q749.967 315.619 750.156 315.616L750.599 315.61L750.605 316ZM752.374 315.973L751.49 315.987L751.483 315.596L752.368 315.582L752.374 315.973ZM754.144 315.946L753.259 315.959L753.253 315.569L754.138 315.555L754.144 315.946ZM755.914 315.918L755.029 315.932L755.023 315.541L755.908 315.528L755.914 315.918ZM757.7 315.874C757.549 315.888 757.396 315.896 757.241 315.898L756.799 315.905L756.793 315.514L757.235 315.507Q757.443 315.504 757.65 315.487L757.666 315.485L757.7 315.874ZM759.437 315.464C759.164 315.572 758.881 315.661 758.591 315.73L758.501 315.35Q758.696 315.303 758.888 315.244Q759.093 315.18 759.294 315.101L759.437 315.464ZM760.954 314.604C760.724 314.781 760.481 314.942 760.228 315.086L760.035 314.746Q760.189 314.659 760.337 314.563Q760.531 314.436 760.716 314.294L760.954 314.604ZM762.171 313.365C761.997 313.599 761.808 313.82 761.605 314.027L761.326 313.754Q761.492 313.585 761.643 313.404Q761.754 313.272 761.857 313.132L762.171 313.365ZM763.007 311.817C762.904 312.097 762.782 312.367 762.642 312.625L762.298 312.439Q762.403 312.246 762.493 312.046Q762.573 311.867 762.641 311.682L763.007 311.817ZM763.397 310.059L763.337 310.498C763.316 310.651 763.29 310.802 763.258 310.951L762.876 310.87Q762.921 310.659 762.95 310.445L763.01 310.006L763.397 310.059ZM763.637 308.306L763.517 309.183L763.13 309.129L763.25 308.253L763.637 308.306ZM763.878 306.552L763.758 307.429L763.371 307.376L763.491 306.499L763.878 306.552ZM764.118 304.798L763.998 305.675L763.611 305.622L763.731 304.745L764.118 304.798ZM764.385 302.997C764.35 303.157 764.321 303.319 764.298 303.483L764.238 303.922L763.851 303.869L763.911 303.43Q763.937 303.244 763.973 303.061Q763.987 302.987 764.003 302.913L764.385 302.997ZM765.088 301.19C764.926 301.468 764.785 301.76 764.667 302.062L764.303 301.92Q764.394 301.689 764.5 301.466Q764.616 301.225 764.75 300.993L765.088 301.19ZM766.303 299.693C766.062 299.91 765.839 300.145 765.636 300.395L765.333 300.149Q765.499 299.944 765.681 299.753Q765.854 299.571 766.041 299.403L766.303 299.693ZM767.89 298.632L767.501 298.844C767.356 298.923 767.214 299.007 767.077 299.097L766.863 298.77Q766.941 298.719 767.019 298.671Q767.164 298.582 767.314 298.5L767.703 298.289L767.89 298.632ZM769.444 297.785L768.667 298.209L768.48 297.866L769.257 297.442L769.444 297.785ZM770.998 296.939L770.221 297.362L770.034 297.019L770.812 296.596L770.998 296.939ZM772.553 296.092L771.776 296.515L771.589 296.172L772.366 295.749L772.553 296.092ZM774.117 295.221C773.988 295.304 773.855 295.383 773.719 295.457L773.33 295.669L773.143 295.326L773.532 295.114Q773.723 295.01 773.906 294.892L774.117 295.221ZM775.473 294.039C775.28 294.264 775.07 294.476 774.844 294.674L774.587 294.38Q774.739 294.247 774.882 294.104Q775.035 293.95 775.176 293.785L775.473 294.039ZM776.418 292.558C776.297 292.824 776.157 293.082 775.999 293.33L775.67 293.12Q775.766 292.969 775.853 292.812Q775.966 292.608 776.062 292.396L776.418 292.558ZM776.913 290.88C776.87 291.17 776.807 291.456 776.724 291.737L776.349 291.626Q776.415 291.403 776.463 291.176Q776.5 291 776.526 290.823L776.913 290.88ZM776.924 289.135C776.963 289.424 776.982 289.713 776.98 290.001L776.589 289.999Q776.59 289.796 776.578 289.594Q776.564 289.39 776.537 289.187L776.924 289.135ZM776.456 287.427L776.606 287.843C776.658 287.985 776.704 288.127 776.744 288.271L776.368 288.377Q776.311 288.174 776.239 287.976L776.089 287.56L776.456 287.427ZM775.854 285.762L776.155 286.594L775.788 286.727L775.487 285.895L775.854 285.762ZM775.252 284.098L775.553 284.93L775.185 285.063L774.884 284.231L775.252 284.098ZM774.65 282.433L774.951 283.266L774.583 283.398L774.282 282.566L774.65 282.433ZM774.048 280.714C774.092 280.872 774.142 281.029 774.198 281.185L774.349 281.601L773.981 281.734L773.831 281.318Q773.764 281.134 773.709 280.947Q773.69 280.882 773.672 280.818L774.048 280.714ZM773.831 278.787C773.817 279.109 773.828 279.433 773.864 279.755L773.476 279.798Q773.448 279.551 773.439 279.303Q773.429 279.037 773.441 278.77L773.831 278.787ZM774.211 276.897C774.099 277.201 774.011 277.513 773.948 277.829L773.565 277.752Q773.617 277.49 773.69 277.234Q773.759 276.995 773.845 276.762L774.211 276.897ZM775.123 275.22L774.878 275.588C774.786 275.726 774.7 275.867 774.62 276.01L774.279 275.819Q774.342 275.707 774.409 275.597Q774.478 275.483 774.553 275.371L774.798 275.003L775.123 275.22ZM776.106 273.748L775.615 274.484L775.29 274.267L775.781 273.531L776.106 273.748ZM777.089 272.276L776.598 273.012L776.273 272.795L776.764 272.059L777.089 272.276ZM778.072 270.804L777.581 271.54L777.256 271.323L777.747 270.587L778.072 270.804ZM779.046 269.318C778.972 269.447 778.893 269.575 778.809 269.7L778.564 270.068L778.239 269.851L778.484 269.483Q778.602 269.308 778.706 269.125L779.046 269.318ZM779.688 267.694C779.621 267.974 779.534 268.25 779.427 268.522L779.064 268.378Q779.138 268.189 779.199 267.996Q779.261 267.802 779.309 267.603L779.688 267.694ZM779.855 265.948C779.869 266.24 779.862 266.533 779.834 266.825L779.445 266.788Q779.461 266.613 779.468 266.439Q779.476 266.202 779.465 265.965L779.855 265.948ZM779.533 264.228C779.627 264.506 779.701 264.79 779.755 265.077L779.371 265.149Q779.327 264.917 779.265 264.69Q779.219 264.52 779.163 264.352L779.533 264.228ZM778.733 262.646C778.905 262.892 779.058 263.148 779.192 263.413L778.843 263.588Q778.747 263.398 778.637 263.215Q778.531 263.039 778.413 262.87L778.733 262.646ZM777.501 261.318L777.828 261.616C777.943 261.721 778.053 261.829 778.158 261.941L777.874 262.209Q777.725 262.051 777.564 261.904L777.238 261.606L777.501 261.318ZM776.194 260.124L776.848 260.721L776.584 261.009L775.931 260.412L776.194 260.124ZM774.888 258.93L775.541 259.527L775.278 259.815L774.624 259.218L774.888 258.93ZM773.581 257.736L774.234 258.333L773.971 258.621L773.318 258.024L773.581 257.736ZM772.25 256.493C772.362 256.613 772.479 256.728 772.601 256.84L772.928 257.139L772.664 257.427L772.338 257.128Q772.211 257.013 772.09 256.89Q772.026 256.826 771.964 256.759L772.25 256.493ZM771.162 254.887C771.299 255.179 771.459 255.461 771.641 255.729L771.317 255.948Q771.179 255.743 771.056 255.528Q770.923 255.296 770.809 255.054L771.162 254.887ZM770.62 253.037C770.662 253.359 770.729 253.675 770.82 253.985L770.445 254.095Q770.369 253.835 770.314 253.57Q770.265 253.331 770.233 253.088L770.62 253.037ZM770.649 251.129L770.602 251.569C770.585 251.733 770.574 251.898 770.569 252.062L770.179 252.051Q770.182 251.938 770.189 251.825Q770.198 251.676 770.214 251.528L770.26 251.088L770.649 251.129ZM770.835 249.369L770.742 250.249L770.353 250.208L770.446 249.327L770.835 249.369ZM771.021 247.608L770.928 248.488L770.54 248.447L770.633 247.567L771.021 247.608ZM771.207 245.848L771.114 246.728L770.726 246.687L770.819 245.807L771.207 245.848ZM771.378 244.08C771.373 244.228 771.363 244.378 771.347 244.528L771.301 244.968L770.912 244.927L770.959 244.487Q770.981 244.277 770.988 244.066L771.378 244.08ZM771.193 242.343C771.264 242.622 771.315 242.907 771.346 243.197L770.958 243.239Q770.936 243.04 770.901 242.842Q770.865 242.639 770.815 242.439L771.193 242.343ZM770.529 240.719C770.677 240.971 770.807 241.234 770.918 241.506L770.556 241.654Q770.489 241.489 770.412 241.329Q770.31 241.119 770.192 240.916L770.529 240.719ZM769.444 239.346C769.657 239.549 769.854 239.766 770.036 239.995L769.729 240.237Q769.584 240.054 769.425 239.883Q769.304 239.752 769.175 239.629L769.444 239.346ZM768.001 238.317C768.268 238.455 768.522 238.611 768.763 238.783L768.536 239.101Q768.36 238.975 768.176 238.863Q768.003 238.757 767.822 238.664L768.001 238.317ZM766.293 237.713L766.721 237.826C766.871 237.866 767.019 237.91 767.164 237.96L767.038 238.33Q766.832 238.259 766.622 238.204L766.194 238.091L766.293 237.713ZM764.581 237.263L765.437 237.488L765.338 237.866L764.482 237.641L764.581 237.263ZM762.869 236.813L763.725 237.038L763.626 237.416L762.77 237.191L762.869 236.813ZM761.157 236.363L762.013 236.588L761.914 236.966L761.058 236.741L761.157 236.363ZM759.401 235.882C759.556 235.936 759.714 235.984 759.874 236.026L760.302 236.138L760.202 236.516L759.774 236.404Q759.612 236.361 759.452 236.31Q759.362 236.282 759.272 236.25L759.401 235.882ZM757.692 234.966C757.949 235.16 758.221 235.335 758.507 235.488L758.322 235.833Q758.1 235.714 757.889 235.578Q757.667 235.437 757.456 235.277L757.692 234.966ZM756.352 233.579C756.539 233.844 756.745 234.094 756.969 234.326L756.688 234.597Q756.504 234.406 756.335 234.201Q756.177 234.009 756.033 233.804L756.352 233.579ZM755.49 231.876L755.654 232.288C755.715 232.441 755.782 232.592 755.854 232.739L755.503 232.912Q755.464 232.831 755.426 232.749Q755.354 232.592 755.291 232.432L755.127 232.02L755.49 231.876ZM754.837 230.231L755.164 231.054L754.801 231.198L754.474 230.375L754.837 230.231ZM754.184 228.586L754.511 229.409L754.148 229.553L753.821 228.73L754.184 228.586ZM753.531 226.941L753.858 227.763L753.495 227.908L753.168 227.085L753.531 226.941ZM752.855 225.283C752.922 225.421 752.984 225.562 753.041 225.707L753.205 226.118L752.842 226.262L752.678 225.851Q752.598 225.649 752.503 225.453L752.855 225.283ZM751.845 223.795C752.045 224.013 752.231 224.247 752.4 224.496L752.077 224.715Q751.964 224.55 751.841 224.393Q751.706 224.221 751.557 224.058L751.845 223.795ZM750.488 222.678C750.738 222.83 750.977 223 751.204 223.187L750.956 223.488Q750.818 223.375 750.673 223.27Q750.484 223.133 750.285 223.011L750.488 222.678ZM748.883 221.984C749.165 222.062 749.442 222.159 749.71 222.275L749.555 222.634Q749.341 222.541 749.121 222.466Q748.952 222.408 748.779 222.361L748.883 221.984ZM747.152 221.763C747.443 221.759 747.733 221.776 748.018 221.812L747.969 222.199Q747.764 222.173 747.558 222.162Q747.358 222.151 747.157 222.153L747.152 221.763ZM745.399 222.022L745.831 221.922C745.978 221.889 746.125 221.86 746.272 221.837L746.332 222.223Q746.124 222.256 745.918 222.303L745.487 222.402L745.399 222.022ZM743.674 222.419L744.537 222.22L744.625 222.601L743.762 222.799L743.674 222.419ZM741.95 222.816L742.812 222.617L742.9 222.998L742.037 223.197L741.95 222.816ZM740.225 223.213L741.087 223.014L741.175 223.395L740.312 223.594L740.225 223.213ZM738.446 223.603C738.608 223.578 738.77 223.548 738.931 223.511L739.362 223.412L739.45 223.792L739.019 223.891Q738.853 223.93 738.686 223.959Q738.595 223.975 738.503 223.989L738.446 223.603ZM736.507 223.586C736.825 223.639 737.147 223.667 737.471 223.67L737.468 224.061Q737.219 224.058 736.972 224.037Q736.707 224.015 736.443 223.971L736.507 223.586ZM734.676 222.981C734.964 223.129 735.263 223.254 735.569 223.355L735.447 223.726Q735.193 223.642 734.948 223.539Q734.719 223.442 734.498 223.328L734.676 222.981ZM733.121 221.873L733.457 222.162C733.583 222.269 733.712 222.372 733.844 222.468L733.614 222.784Q733.521 222.716 733.429 222.644Q733.314 222.554 733.203 222.458L732.867 222.17L733.121 221.873ZM731.779 220.72L732.45 221.297L732.196 221.593L731.524 221.016L731.779 220.72ZM730.436 219.567L731.107 220.143L730.853 220.44L730.181 219.863L730.436 219.567ZM729.093 218.414L729.765 218.99L729.51 219.287L728.839 218.71L729.093 218.414ZM727.732 217.266C727.852 217.355 727.971 217.45 728.086 217.549L728.422 217.837L728.167 218.133L727.832 217.845Q727.67 217.706 727.499 217.58L727.732 217.266ZM726.185 216.428C726.456 216.529 726.723 216.649 726.981 216.789L726.796 217.132Q726.618 217.036 726.434 216.953Q726.245 216.867 726.049 216.795L726.185 216.428Z" fill="#232229" fill-opacity="1.000000" fill-rule="evenodd"/>
</svg>
